<?xml version="1.0" standalone="no"?>
<!DOCTYPE svg PUBLIC "-//W3C//DTD SVG 1.1//EN" "http://www.w3.org/Graphics/SVG/1.1/DTD/svg11.dtd" >
<svg xmlns="http://www.w3.org/2000/svg" xmlns:xlink="http://www.w3.org/1999/xlink" version="1.1">
<metadata>
Created by FontForge 20161116 at Mon Mar 17 18:21:48 2008
 By Jimmy Wärting
Copyright (c) Gophmann Alexandria Leopoldovna, 2008. All rights reserved.
</metadata>
<defs>
<font id="AstoriaDeco-Medium" horiz-adv-x="450" >
  <font-face 
    font-family="Astoria Deco"
    font-weight="500"
    font-stretch="normal"
    units-per-em="1000"
    panose-1="2 0 6 6 2 0 0 2 0 4"
    ascent="800"
    descent="-200"
    x-height="265"
    cap-height="792"
    bbox="-216 -434 1146 1049"
    underline-thickness="20"
    underline-position="-143"
    unicode-range="U+0020-2122"
  />
<missing-glyph horiz-adv-x="1000" 
 />
    <glyph glyph-name=".notdef" horiz-adv-x="1000" 
 />
    <glyph glyph-name=".null" horiz-adv-x="0" 
 />
    <glyph glyph-name="nonmarkingreturn" horiz-adv-x="200" 
 />
    <glyph glyph-name="space" unicode=" " horiz-adv-x="200" 
 />
    <glyph glyph-name="exclam" unicode="!" horiz-adv-x="106" 
d="M28 969h50v-795h-48zM52 42q-16 0 -29 12.5t-13 29.5q0 16 13 29t29 13q18 0 31 -13t13 -29q0 -17 -13 -29.5t-31 -12.5z" />
    <glyph glyph-name="quotedbl" unicode="&#x22;" horiz-adv-x="160" 
d="M111 835q-6 36 -10.5 64.5t-15.5 75.5h65q-5 -27 -8 -44.5t-6 -31.5t-6 -28.5t-6 -33.5zM36 835q-6 36 -10.5 64.5t-15.5 75.5h65q-5 -27 -8 -44.5t-6 -31.5t-6 -28.5t-6 -35.5h-13z" />
    <glyph glyph-name="numbersign" unicode="#" horiz-adv-x="318" 
d="M193 99h-46l24 117h-57l-26 -117h-46l24 115h-45v50h55l12 55h-67v48h78l25 119h47l-24 -119h57l24 119h48l-26 -117h47v-48h-57l-12 -56h69v-49h-80zM124 264h57l12 57h-57z" />
    <glyph glyph-name="dollar" unicode="$" horiz-adv-x="264" 
d="M196 418q-4 12 -24 29l-24 -126h6q6 -12 15 -20q24 -25 35 -48q12 -24 9.5 -48.5t-16.5 -44t-37.5 -31.5t-51.5 -12l-12 -65l-27 6l12 62q-8 4 -12.5 6.5t-7.5 5.5q-30 19 -40 55l46 11q3 -6 7.5 -12t16.5 -18l23 123q-3 6 -6 9.5t-6 6.5q-3 5 -11 12q-7 11 -17 23
t-16 24q-15 30 -3.5 63.5t38.5 51.5q24 18 61 18l9 47l27 -6l-9 -44l23 -12q30 -19 39 -55l-47 -11v0zM120 442q-17 -12 -20.5 -28.5t6.5 -32.5q2 -3 2.5 -4t2.5 -4q3 -4 4.5 -7t8.5 -18l21 102q-12 0 -17 -2.5t-8 -5.5zM117 163q31 8 42.5 30.5t-2.5 44.5q-3 6 -21 24z" />
    <glyph glyph-name="percent" unicode="%" horiz-adv-x="463" 
d="M121 277q-39 0 -66.5 28t-27.5 67t27.5 66.5t66.5 27.5t67 -27.5t28 -66.5t-28 -66t-67 -27v-2zM342 51q-39 0 -67 27.5t-28 66.5t28 67t67 28t66.5 -28t27.5 -67t-27.5 -66.5t-66.5 -27.5zM75 37l255 441l42 -25l-255 -441zM121 417q-18 0 -32 -13t-14 -32
q0 -18 14 -32.5t32 -14.5q20 0 32.5 14.5t12.5 32.5t-13.5 31.5t-31.5 13.5zM342 190q-18 0 -32.5 -12.5t-14.5 -32.5q0 -18 14.5 -32t32.5 -14q19 0 32 14t13 32t-13.5 31t-31.5 13v1z" />
    <glyph glyph-name="ampersand" unicode="&#x26;" horiz-adv-x="654" 
d="M77 157q-23 -46 -26 -98v-11q0 -58 26 -107q-17 23 -26 50t-9 56v10q2 27 11 52t24 48zM181 349q-41 44 -44 106v7q0 29 10.5 54.5t28.5 44.5q-13 -20 -20 -45.5t-7 -53.5v-8q1 -29 9.5 -55.5t22.5 -49.5zM627 370l-24 -8q9 -23 9 -46q0 -27 -11 -52.5t-33 -45.5
q-19 -18 -43.5 -29.5t-51 -20t-53 -15t-49.5 -13.5q-16 -5 -33 -15t-32 -23.5t-26.5 -30t-17.5 -33.5l24 -8q10 30 37.5 53.5t55.5 32.5q12 4 25 7.5t27 7.5q25 -22 39.5 -51t14.5 -62v-7q-2 -34 -18.5 -64.5t-43.5 -53t-62 -36t-74 -13.5h-2h-9t-9 1q-41 3 -76 19.5t-61 44
t-40.5 63.5t-14.5 77v9q1 39 16 73.5t39.5 62t56.5 46.5t69 27q10 2 19.5 3t20.5 2q17 0 29 3l-4 24q-12 -3 -24 -3q-25 2 -47 15.5t-38.5 35t-27 49t-11.5 58.5v6q0 28 7.5 52.5t21.5 43.5t32.5 30t41.5 13q10 -1 20.5 -2t19.5 -5l10 24q-15 5 -29 7t-29 2
q-33 0 -61.5 -12.5t-49 -34.5t-32.5 -52t-12 -64v-9q2 -57 34 -102t80 -65q-43 -11 -80.5 -33t-65 -51.5t-44.5 -66t-19 -76.5v-13q0 -52 23 -94t60.5 -71.5t85 -45.5t96.5 -16q40 0 80 13.5t71.5 38.5t52 60t22.5 78v10q0 70 -50 120q35 11 67.5 24.5t57.5 36.5
q26 23 39 54.5t13 63.5q0 26 -9 52z" />
    <glyph glyph-name="quotesingle" unicode="'" horiz-adv-x="133" 
d="M60 835q-6 36 -10.5 64.5t-15.5 75.5h65q-5 -27 -8 -44.5t-6 -31.5t-6 -28.5t-6 -33.5z" />
    <glyph glyph-name="parenleft" unicode="(" horiz-adv-x="360" 
d="M351 -308q-57 5 -106 43t-85 100t-56.5 143t-20.5 172t21 172t57 143t85 100t105 43l-3 24q-70 -4 -132 -43.5t-108 -104.5t-72.5 -151t-26.5 -183t27 -183t73 -151t108 -104.5t132 -43.5zM163 513q-48 -66 -76.5 -160t-28.5 -203t28.5 -203t76.5 -160q-59 63 -94 157.5
t-35 205.5t35 205.5t94 157.5z" />
    <glyph glyph-name="parenright" unicode=")" horiz-adv-x="363" 
d="M6 -308q56 5 105 43t85 100t56.5 143t20.5 172t-21 172t-57 143t-85 100t-105 43l3 24q70 -4 132 -43.5t108 -104.5t72.5 -151t26.5 -183t-27 -183t-73 -151t-108 -104.5t-132 -43.5zM193 513q48 -66 76.5 -160t28.5 -203t-28.5 -203t-76.5 -160q59 63 94 157.5t35 205.5
t-35 205.5t-94 157.5z" />
    <glyph glyph-name="asterisk" unicode="*" horiz-adv-x="282" 
d="M216 691q-9 6 -12 11q-3 4 -7 8t-7 10q-7 7 -15.5 14.5t-26.5 22.5q2 -18 2.5 -24.5t2.5 -12.5q1 -5 2.5 -9.5t3.5 -8.5l7 -21t3 -17q0 -15 -8 -24t-20 -9t-20.5 9t-8.5 24q0 11 3 17q2 4 3.5 9.5t2.5 11.5q3 9 6 20t9 35q-21 -16 -29 -23.5t-14 -15.5q-8 -7 -14 -16
q-4 -5 -13 -11q-12 -7 -24 -4t-18 13q-6 11 -3 22t15 19q9 4 18.5 5.5t20.5 4.5q9 2 20 5t32 12q-21 9 -33 12t-19 6l-23 4q-9 2 -16 6q-12 8 -15 19t3 22q6 9 18 12.5t24 -3.5q7 -6 13 -13.5t14 -15.5q6 -7 14 -14.5t29 -24.5l-9 36t-6 21q-1 6 -2.5 10.5t-3.5 9.5
q-4 9 -4 16q0 15 9 24t21 9t20 -9t8 -24q0 -7 -3 -16l-7 -21q-2 -5 -3.5 -9.5t-2.5 -8.5q-2 -6 -2.5 -13t-2.5 -25q14 12 20 16.5t9 7.5l27 32q7 7 12 10q13 8 24.5 5t17.5 -12q15 -26 -12 -42q-9 -5 -19 -6.5t-20 -4.5q-8 -1 -20 -4t-34 -14q22 -7 34 -9.5t20 -5.5l22 -4
q9 -3 17 -6q12 -8 15 -19t-3 -22q-6 -9 -18 -12.5t-24 3.5z" />
    <glyph glyph-name="plus" unicode="+" horiz-adv-x="375" 
d="M210 153h-48v82h-81v48h81v84h48v-82h84v-48h-84v-84z" />
    <glyph glyph-name="comma" unicode="," horiz-adv-x="144" 
d="M111 21q-14 -35 -48 -50l-6 17q31 13 46 64q-13 -7 -18.5 -8.5t-9.5 -1.5q-18 0 -31 12.5t-13 29.5q0 16 13 29t29 13q14 0 24.5 -9t14.5 -23q14 -40 -1 -73z" />
    <glyph glyph-name="hyphen" unicode="-" horiz-adv-x="195" 
d="M39 267h117v-48h-116z" />
    <glyph glyph-name="period" unicode="." horiz-adv-x="144" 
d="M72 42q-18 0 -30 12t-12 30t12 30t30 12t30 -12t12 -30t-12 -29.5t-30 -11.5v-1z" />
    <glyph glyph-name="slash" unicode="/" horiz-adv-x="252" 
d="M31 -66l228 609h-39l-227 -609h38z" />
    <glyph glyph-name="zero" unicode="0" 
d="M225 51q-35 0 -65.5 13.5t-53 36t-36 53t-13.5 65.5q0 36 13.5 66.5t36 53t52.5 36t64 13.5q35 0 65.5 -13.5t54 -36.5t37 -54t13.5 -65q0 -35 -13.5 -65t-36 -52.5t-53.5 -36t-65 -13.5v-1zM225 340q-50 0 -85 -36t-35 -85q0 -24 9.5 -46t25.5 -38.5t37.5 -26t45.5 -9.5
q26 0 47.5 9.5t38 26t25.5 38.5t9 46q0 49 -34.5 85t-83.5 36z" />
    <glyph glyph-name="one" unicode="1" horiz-adv-x="285" 
d="M141 336h-60v51h108v-335h-48v284z" />
    <glyph glyph-name="two" unicode="2" 
d="M264 223q16 20 21.5 46t-15.5 47q-17 18 -41.5 20.5t-45.5 -12.5l-33 36q34 28 79 25t77 -36q31 -34 28 -78.5t-33 -78.5l-79 -92h121v-48h-228z" />
    <glyph glyph-name="three" unicode="3" 
d="M267 -120q-35 -9 -68.5 -4t-63 21t-51 42t-32.5 61l47 13q9 -24 24.5 -42.5t37.5 -30.5t46 -16t49 4q24 6 44.5 22.5t32.5 37.5t15.5 45.5t-2.5 50.5q-12 42 -45 68t-76 26h-66l87 161h-134v51h227l-95 -162q57 -12 97 -46.5t52 -84.5q9 -36 3.5 -70.5t-22 -63.5
t-44 -51.5t-63.5 -31.5z" />
    <glyph glyph-name="four" unicode="4" 
d="M331 -132h-48v183h-255l252 438l42 -26l-210 -364h170v117h48v-116h97v-48h-96v-184z" />
    <glyph glyph-name="five" unicode="5" 
d="M268 -123q-34 -9 -68 -4t-63 21t-51.5 42t-33.5 61l48 12q15 -48 60 -73t95 -11q25 6 45.5 22.5t32.5 37.5t15 45.5t-3 50.5q-12 42 -45 68t-77 26h-73l61 212h159v-50h-126l-28 -111q66 0 113 -37.5t62 -94.5q11 -36 5.5 -70.5t-22 -63.5t-44 -51.5t-62.5 -31.5z" />
    <glyph glyph-name="six" unicode="6" 
d="M141 75q-30 18 -49.5 44t-28.5 57.5t-5.5 64.5t21.5 63l195 338l42 -26l-136 -234q79 14 130 -16q30 -17 49.5 -44t28 -58.5t4.5 -65t-22 -63.5t-44 -49.5t-57.5 -28t-64.5 -4.5t-63 22zM195 334q-24 -6 -43 -21t-30 -34.5t-15 -42.5t4 -47q6 -24 21 -43t34.5 -30
t42.5 -15t47 4q24 6 43 21t30 34.5t14 42.5t-3 47t-21 43t-35 30t-43.5 14t-45.5 -3z" />
    <glyph glyph-name="seven" unicode="7" 
d="M46 -131l270 467h-250v51h336l-314 -543z" />
    <glyph glyph-name="eight" unicode="8" 
d="M226 28q-37 0 -69.5 14.5t-56.5 38.5t-38 56t-14 70q0 45 23 84.5t71 69.5q3 3 3 5q-1 1 -4 2t-6 4q-15 18 -24 39.5t-9 47.5q0 49 36 86t87 37t87 -36t36 -87q0 -53 -42 -95q45 -25 70.5 -67t25.5 -90q0 -38 -14.5 -70t-37.5 -56t-55.5 -37.5t-68.5 -13.5v-2zM279 511
q-23 23 -53 23q-31 0 -53.5 -22t-22.5 -53q0 -32 24 -53q19 -24 51 -24q31 0 53 23.5t22 53.5q0 31 -21 52zM226 336q-27 0 -50 -10.5t-41 -28.5t-28 -41.5t-10 -48.5q0 -27 10 -50.5t27 -40.5t40.5 -27.5t50.5 -10.5t50 9.5t40.5 27.5t28 41.5t10.5 50.5q0 25 -10.5 48.5
t-28 40.5t-40.5 27.5t-50 10.5z" />
    <glyph glyph-name="nine" unicode="9" 
d="M160 -134l110 188q-39 -6 -70.5 -2.5t-58.5 20.5q-30 18 -50.5 44t-28.5 57.5t-4.5 64.5t21.5 63t44.5 49.5t58 28.5t65 5.5t63.5 -21.5q30 -17 49.5 -44t28 -58.5t4.5 -64.5t-22 -63l-168 -292zM195 333q-24 -6 -43 -21t-30 -34.5t-15 -43t4 -47.5q6 -22 21 -41t35 -31
t43.5 -15.5t45.5 2.5q24 6 43 21t30 34.5t14 43.5t-3 48t-21 42.5t-34.5 30t-42.5 14.5t-47 -3z" />
    <glyph glyph-name="colon" unicode=":" horiz-adv-x="144" 
d="M73 193q-18 0 -30 12t-12 30t12 30t29 12q18 0 30 -12t12 -30t-12 -29t-29 -11v-2zM72 42q-18 0 -30 12t-12 30t12 30t28 12q18 0 30 -12t12 -30t-12 -30t-30 -12h2z" />
    <glyph glyph-name="semicolon" unicode=";" horiz-adv-x="144" 
d="M73 193q-18 0 -30 12t-12 30t12 30t30 12t30 -12t12 -30t-12 -29t-30 -11v-2zM109 21q-13 -33 -48 -50l-6 17q30 13 45 64q-13 -7 -18.5 -8.5t-9.5 -1.5q-18 0 -31 12.5t-13 29.5q0 16 13 29t31 13q13 0 23.5 -9t15.5 -23q13 -37 -2 -73z" />
    <glyph glyph-name="less" unicode="&#x3c;" horiz-adv-x="526" 
d="M43 346l440 231v-51l-396 -207l396 -207v-51l-438 231z" />
    <glyph glyph-name="equal" unicode="=" horiz-adv-x="375" 
d="M81 345h213v-48h-213v48zM81 225h213v-50h-213v50z" />
    <glyph glyph-name="greater" unicode="&#x3e;" horiz-adv-x="526" 
d="M478 292l-439 -231v51l396 207l-396 207v51l439 -231v-54z" />
    <glyph glyph-name="question" unicode="?" horiz-adv-x="307" 
d="M232 337q-12 -15 -24 -29t-21 -31q-7 -15 -12.5 -32t-5.5 -38v-36h-49v36q0 25 6 47.5t16 42.5q17 31 42.5 56.5t41.5 57.5q17 28 10 57.5t-34 48.5q-30 21 -65 13.5t-56 -35.5q-3 -6 -6 -11.5t-5 -12.5l-48 10q8 24 20 41q15 22 37.5 36.5t48 19t52.5 -1t49 -20.5
q39 -25 52.5 -71t-7.5 -89q-7 -17 -18.5 -31t-23.5 -28zM145 42q-18 0 -30 12.5t-12 29.5q0 16 12 29t30 13q17 0 29.5 -13t12.5 -29q0 -17 -12.5 -29.5t-29.5 -12.5z" />
    <glyph glyph-name="at" unicode="@" horiz-adv-x="597" 
d="M543 211h-287q-39 0 -66 27t-27 66q0 38 27 64t66 26h18l-33 60h54l113 -195h100q3 17 4.5 29t1.5 24q0 45 -17 84t-46.5 69t-68.5 47t-84 17t-84 -17t-69 -47t-47 -69t-17 -84t17 -84t47 -68.5t69 -46.5t84 -17q74 0 132 46l32 -37q-71 -57 -164 -57q-55 0 -103 21
t-84 57t-57 84t-21 102q0 55 21 103t57 84t84 57t103 21q54 0 103 -21t85 -57t57 -84.5t21 -102.5q0 -41 -15 -83zM256 348q-16 0 -29.5 -13.5t-13.5 -30.5q0 -18 12.5 -31.5t30.5 -13.5h96l-49 89h-47z" />
    <glyph glyph-name="A" unicode="A" horiz-adv-x="929" 
d="M919 16q-31 -33 -72 -53.5t-86 -26.5l47 -117h-84l-48 122l-453 53q-6 1 -12 1h-11q-15 -43 -26 -85t-25 -91h-52l69 174q-39 -6 -73.5 -23.5t-61.5 -46.5l-21 22q33 35 75.5 55t92.5 24l4 12l228 580l-19 49l37 111l322 -812q42 4 80.5 23t67.5 50l21 -21v0zM430 685
l-6 -19l321 -817h17zM427 574l-216 -550q5 0 8.5 -0.5t7.5 -0.5l437 -52z" />
    <glyph glyph-name="B" unicode="B" horiz-adv-x="373" 
d="M200 331q32 30 50 74t18 94q0 51 -18 94t-50 73q21 -32 33 -75t12 -92t-12 -91.5t-33 -76.5zM349 50q0 -46 -20.5 -89t-55.5 -74t-82.5 -49.5t-101.5 -18.5h-65v926h60q43 0 82 -19t68 -52.5t46.5 -78t17.5 -96.5q0 -38 -10 -73.5t-28 -65t-42 -52t-52 -37.5
q39 -11 72.5 -32.5t58.5 -50t38.5 -64t13.5 -74.5zM100 284q25 5 46 24.5t36 48t24 65t9 77.5t-9 77t-24 65t-36 47.5t-46 24.5v-429zM71 715h-17v-866h16zM100 -150q33 4 63 20.5t53 43.5t35.5 62t12.5 74q0 40 -12.5 75t-35 62t-52.5 43.5t-63 20.5v-401h-1zM294 50
q0 -42 -12.5 -79t-35.5 -67q34 28 53.5 65.5t19.5 80.5q0 45 -19.5 82.5t-54.5 65.5q23 -30 36 -68t13 -80z" />
    <glyph glyph-name="C" unicode="C" horiz-adv-x="863" 
d="M844 438q0 -55 -19.5 -100t-53 -77.5t-79.5 -50t-99 -17.5h-3h-2q-31 0 -60 9t-53 25.5t-42.5 38t-28.5 47.5q-9 27 -11 55t5.5 55t23.5 51t42 42l17 -24q-43 -30 -53 -77.5t5 -91.5q16 -45 59.5 -72.5t97.5 -27.5q42 0 78 15.5t62.5 44t41.5 68t15 87.5q0 56 -19 103
t-52 82t-78 57t-96 30q-16 3 -32.5 4t-33.5 1q-82 0 -150.5 -35.5t-118.5 -94.5t-78.5 -139t-30.5 -169q-1 -90 24.5 -170.5t72 -139.5t112 -94.5t144.5 -35.5q106 0 197.5 51t160.5 150l24 -16q-71 -106 -168 -159.5t-209 -55.5h-11q-96 0 -174.5 36.5t-135.5 100.5
t-87.5 150t-28.5 183q3 97 37 182.5t94 148.5t143.5 100t182.5 37q40 0 80 -7q60 -11 112.5 -35.5t91.5 -63t61.5 -89.5t22.5 -112zM174 592q-58 -62 -91 -142t-35 -173q-2 -97 29.5 -180t90.5 -144q-49 64 -75 146.5t-23 177.5q2 90 29 170.5t75 144.5z" />
    <glyph glyph-name="D" unicode="D" horiz-adv-x="515" 
d="M73 716h-19v-867h19v867zM79 -179q-13 -2 -29 -2h-26v926h41q89 0 166 -37t135 -100t91.5 -147t33.5 -178q0 -92 -32.5 -172.5t-88.5 -141.5t-131 -99.5t-160 -48.5zM449 283q0 -74 -18.5 -140.5t-52.5 -123.5q38 57 60.5 123.5t22.5 140.5q0 79 -25.5 150t-69.5 129
q40 -58 61.5 -129t21.5 -150zM419 283q0 81 -24.5 154t-66.5 130t-100.5 95t-124.5 50v-860q67 11 125 49.5t100.5 96t66.5 131t24 154.5z" />
    <glyph glyph-name="E" unicode="E" horiz-adv-x="469" 
d="M469 190q-20 -24 -49.5 -38t-64.5 -12l-157 8v-299h41q33 0 56.5 1t43 3t38 5.5t41.5 9.5v-49h-296v335h-10q-27 2 -49.5 -10t-38.5 -31l-24 19q20 24 49.5 38.5t63.5 11.5h9v563h296v-48q-23 5 -41.5 8.5t-38 6t-43 3t-56.5 0.5h-41v-539l160 -7q27 -1 49.5 10t37.5 30
l24 -19v0zM168 715h-16v-866h16v866z" />
    <glyph glyph-name="F" unicode="F" horiz-adv-x="469" 
d="M469 190q-20 -24 -50 -38t-64 -12l-157 8v-329h-76v335h-10q-28 2 -50 -10t-38 -31l-24 19q20 24 49 38.5t64 11.5h9v563h296v-48q-23 5 -41.5 8.5t-38.5 6t-43.5 3t-55.5 0.5h-41v-539l160 -7q26 -1 49 10t38 30l24 -19v0zM168 715h-16v-866h16v866z" />
    <glyph glyph-name="G" unicode="G" horiz-adv-x="544" 
d="M446 -181q-87 3 -164.5 41t-135 100.5t-91 146t-33.5 176.5q0 94 33 176.5t90.5 144.5t134 100t164.5 41l1 -14l1 -15q-74 -3 -138 -39t-112 -94.5t-76 -135.5t-28 -164t28 -164.5t76 -136t112 -94.5t138 -39v589h76v-619h-76zM492 408h-16v-559h16v559zM121 42
q-27 53 -43 113.5t-16 127.5q0 66 16 126.5t43 113.5q-33 -51 -51 -112t-18 -128t18 -128t51 -113z" />
    <glyph glyph-name="H" unicode="H" horiz-adv-x="618" 
d="M618 190q-22 -27 -52 -43t-64 -20v-308h-76v308l-235 12v-320h-76v321q-57 -9 -91 -52l-24 19q44 54 115 63v575h76v-577l235 -11v588h76v-589q27 5 51.5 18.5t42.5 34.5l22 -19v0zM472 715h-16v-866h16v866zM161 715h-16v-866h16v866z" />
    <glyph glyph-name="I" unicode="I" horiz-adv-x="169" 
d="M96 833h-29l-24 216h77zM49 -181v930h77v-930h-77zM76 1019l6 -54l6 54h-12zM96 719h-17v-870h17v870z" />
    <glyph glyph-name="J" unicode="J" horiz-adv-x="170" 
d="M-216 -406q61 4 112.5 33.5t89.5 78t59.5 112.5t21.5 136v784h75v-784q0 -97 -33 -170t-85.5 -121.5t-116 -72.5t-123.5 -24v28v0zM112 708h-15v-754q0 -58 -13 -112t-37 -100q31 46 48 99t17 113v754z" />
    <glyph glyph-name="K" unicode="K" horiz-adv-x="875" 
d="M875 -16q-15 -36 -40 -66.5t-57.5 -52t-71.5 -33.5t-82 -12q-47 0 -94.5 14.5t-93.5 35t-89 43.5t-82 41q-31 15 -68 21v-156h-76v159q-45 -3 -83 -24q-6 -2 -12 -5.5t-12 -6.5l-14 27q32 17 62 35.5t59 38.5v702h76v-641q145 128 237.5 300.5t112.5 374.5l29 -3
q-11 -108 -42 -208t-79.5 -190.5t-114 -170t-143.5 -143.5v-59q23 -4 42.5 -9.5t37.5 -14.5q37 -18 80 -41t86.5 -43.5t89 -34t91.5 -13.5q77 0 137 41.5t85 105.5l29 -12v0zM167 715h-16v-866h16v866z" />
    <glyph glyph-name="L" unicode="L" horiz-adv-x="401" 
d="M18 -181v926h76v-896h40q68 0 135.5 4t113.5 15v-49h-365zM64 715h-16v-866h16v866z" />
    <glyph glyph-name="M" unicode="M" horiz-adv-x="683" 
d="M577 -181v830l-217 -282l26 -33l-49 -62l-278 362v-812h-30v977l312 -405l313 406v-981h-77zM624 710l-17 -21v-840h17v861zM347 334q-1 2 0 1t-3 4l-18 22.5t-45 58.5t-84.5 110.5t-137.5 178.5v-25q80 -106 131.5 -173t82.5 -106t44 -56.5t16.5 -22t2.5 -3.5t1 -1
l10 12v0z" />
    <glyph glyph-name="N" unicode="N" horiz-adv-x="437" 
d="M397 359v-537h-30v376q0 42 -15 78t-40 66.5t-58 56t-70 45.5q-34 19 -63 40.5t-53 49.5v-712h-30v863v58h30v-55q14 -56 55 -96t93 -70q43 -25 81.5 -55t69.5 -65v341h30v-381l1 -2zM367 350q-30 46 -72.5 81t-92.5 65q-40 24 -75 53t-59 67v-35q24 -34 58 -61.5
t72 -49.5q54 -30 98 -67.5t71 -88.5v36z" />
    <glyph glyph-name="O" unicode="O" horiz-adv-x="912" 
d="M883 287q0 -111 -33.5 -200t-91.5 -151.5t-136 -96t-166 -33.5t-166 37.5t-136 103t-91.5 152.5t-33.5 187q0 98 33.5 185t91.5 152t136 102.5t166 37.5v-30q-71 0 -132 -35.5t-107.5 -96t-72.5 -142t-26 -173.5q0 -93 26 -174.5t72.5 -142.5t107.5 -97t131 -36h1
q70 0 131.5 33t108 91t72.5 138t26 172q0 88 -17 163t-47 130t-71 86t-88 31v2h-3q-36 0 -68 -12t-58.5 -35.5t-44.5 -55.5t-25 -71l-29 4q9 46 29 82.5t50 62.5t67.5 39.5t78.5 13.5h3q6 0 10.5 -0.5t10.5 -0.5q55 -7 107.5 -39.5t93.5 -87t65.5 -129.5t24.5 -166zM853 287
q0 103 -32.5 183.5t-82.5 131.5q40 -60 63 -144.5t23 -187.5t-30.5 -189.5t-83.5 -148.5q66 58 104.5 148t38.5 207zM198 -56q-52 66 -81 153t-29 189q0 100 29 187t81 152q-65 -61 -102 -149t-37 -190q0 -104 37 -192t102 -150z" />
    <glyph glyph-name="P" unicode="P" horiz-adv-x="451" 
d="M430 386q0 -62 -20 -118.5t-55 -102t-83 -79t-103 -50.5v-217h-77v204q-6 -1 -12 -1h-12q-34 0 -68 7l7 29q16 -4 31 -5t30 -1h12t12 1v692h42q64 0 118 -31t93.5 -81.5t62 -114.5t22.5 -132zM400 386q0 41 -9 80.5t-26 76.5t-40.5 68t-53.5 54q51 -51 80 -123t29 -154
q0 -64 -16.5 -121t-47.5 -103q38 45 61 101.5t23 120.5zM350 388q0 54 -13 102.5t-37.5 89t-57.5 72.5t-73 50v-628q40 18 73 49.5t57.5 72t37.5 89.5t13 103zM139 713q-7 2 -7.5 2h-9.5v-866h17v864z" />
    <glyph glyph-name="Q" unicode="Q" horiz-adv-x="907" 
d="M950 -334q-27 0 -51 10.5t-42.5 28t-30.5 40.5t-14 50q-16 -5 -33.5 -8t-36.5 -3q-40 0 -76 12.5t-66 34.5q-68 -25 -145 -25q-88 0 -165.5 37.5t-135.5 103t-91.5 152.5t-33.5 187q0 98 33.5 185t91.5 152t135.5 102.5t165.5 37.5v-30q-71 0 -132 -35.5t-107 -96
t-72 -142t-26 -173.5q0 -93 26 -174.5t72 -142.5t107 -97t131 -36h1q59 0 114 24q-30 32 -47 73.5t-17 88.5h30q0 -44 17 -81.5t44 -66.5q44 25 80.5 64.5t63 90.5t40.5 112.5t14 128.5q0 88 -17 163t-47 130t-71 86t-89 31q-78 0 -131.5 -48.5t-66.5 -123.5l-29 4
q7 46 28 82.5t50.5 62.5t67 39.5t77.5 13.5q6 0 13 -0.5t13 -0.5q55 -7 107 -40t93 -87.5t66 -129t25 -165.5q0 -81 -18.5 -150.5t-51.5 -125t-78.5 -97.5t-100.5 -69q48 -31 108 -31q20 0 43.5 5.5t58.5 20.5q-3 -33 4.5 -59.5t22.5 -45t35 -29t44 -10.5v-30v0zM853 287
q0 102 -31.5 181.5t-82.5 132.5q39 -60 62 -144.5t23 -186.5q0 -103 -30.5 -189t-83.5 -149q66 60 104.5 149t38.5 206zM198 -56q-52 64 -81 152t-29 190q0 100 29 188t80 152q-64 -62 -101 -149.5t-37 -190.5q0 -104 37 -192t102 -150z" />
    <glyph glyph-name="R" unicode="R" horiz-adv-x="827" 
d="M827 -80q-35 -52 -95 -79.5t-134 -19.5q-47 5 -94.5 23.5t-93 42.5t-89 51t-81.5 50q-20 12 -45 21t-51 14v-204h-77v209q-12 -3 -22.5 -4.5t-21.5 -5.5l-11 -5l-12 29l67 26v677h42q64 0 118 -29.5t93.5 -76.5t61.5 -108.5t22 -124.5q0 -56 -18 -107t-49 -94t-75 -76.5
t-94 -54.5l-24 -9v-12q31 -5 58.5 -15t51.5 -24q38 -21 80 -48t85.5 -51t89 -42t91.5 -23q65 -7 118.5 17.5t84.5 68.5l24 -16v0zM374 406q0 74 -32 143.5t-90 112.5q48 -48 75.5 -114t27.5 -142q0 -52 -12.5 -100.5t-36.5 -90.5q32 41 50 89t18 102zM325 406q0 50 -13 96
t-37.5 85t-57.5 68.5t-73 46.5v-604q40 18 73.5 49.5t57.5 71.5t37 88t13 99zM114 713q-7 2 -7.5 2h-9.5v-866h17v864z" />
    <glyph glyph-name="S" unicode="S" horiz-adv-x="612" 
d="M443 35q0 5 0.5 9t0.5 9q0 41 -15.5 72t-41 55t-57 43t-62.5 39q-41 24 -77 45t-64.5 45.5t-47.5 55.5t-26 77q3 -57 22.5 -93.5t50 -63t70 -48.5t84.5 -48q38 -24 68 -47t50.5 -48t31 -54.5t10.5 -66.5q3 12 3 19zM590 569q0 -82 -48 -124t-122 -42q-29 0 -53.5 10.5
t-42.5 27t-28 40t-10 48.5q0 33 15 63l27 -15q-11 -24 -11 -45q0 -39 25.5 -67t67.5 -32v1h9q50 0 80.5 40t30.5 97v1q0 54 -34 101t-92 64h-1q-49 13 -89 13q-28 0 -56 -5t-52 -14q-60 -25 -93.5 -73t-34.5 -117v-5q0 -56 16 -92t44.5 -62.5t65 -47.5t78.5 -46
q35 -22 69 -43.5t61 -49t44 -61.5t17 -81q0 -5 -0.5 -10t-0.5 -11q-4 -46 -25.5 -86t-54 -68.5t-72.5 -45t-84 -16.5q-66 0 -122 39l17 24q24 -17 51 -25t54 -8q57 0 104 29l-2 1q29 18 49 45t23 72q0 6 1 10t1 10q0 66 -39 108t-109 84q-50 31 -94.5 56.5t-77 57
t-51.5 76.5t-19 115q0 86 46 150.5t122 95.5q6 2 10 4t10 4v-1q50 17 104 17q47 0 96 -14q4 -2 7.5 -3t6.5 -2q32 -11 62 -28.5t53 -41t37 -53.5t14 -67v-2z" />
    <glyph glyph-name="T" unicode="T" horiz-adv-x="480" 
d="M466 697q-23 5 -41 8.5t-38 6t-43.5 3t-56.5 0.5h-10v-896h-75v896h-10q-34 0 -57 -0.5t-43 -3t-38 -6t-40 -8.5v48h452v-48v0zM247 715h-15v-866h15v866z" />
    <glyph glyph-name="U" unicode="U" horiz-adv-x="462" 
d="M433 22q0 -42 -16 -79t-43.5 -64.5t-64.5 -43.5t-79 -16t-78.5 16t-64 43.5t-43 64.5t-15.5 79v723h75v-746q0 -31 11 -59t30 -49t45.5 -32t56.5 -9q33 2 61 16.5t49.5 38t33.5 53.5t12 64v721h30v-721v0zM91 -79q-17 37 -17 78v716h-15v-693q0 -56 32 -101z" />
    <glyph glyph-name="V" unicode="V" horiz-adv-x="600" 
d="M497 456q-54 -163 -105.5 -319.5t-107.5 -322.5h-32l31 96l-276 835h81l236 -714l144 436q23 67 38 135t34 143h53zM66 715h-17l251 -757l8 25z" />
    <glyph glyph-name="W" unicode="W" horiz-adv-x="956" 
d="M640 -187h-33l33 98l-161 483l-22 -66q-21 -66 -43 -129t-43 -126l-42.5 -127.5t-44.5 -132.5h-32l32 96l-277 836h81l236 -716l104 307q21 59 33.5 120t29.5 128h53l-24 -73l159 -479l135 402q25 76 42.5 151.5t38.5 159.5h54zM503 464l-7 -22l159 -483l9 25zM66 715
h-17l251 -758l8 24z" />
    <glyph glyph-name="X" unicode="X" horiz-adv-x="568" 
d="M479 -181l-220 435q-21 -45 -46.5 -99.5t-45.5 -98.5l-112 -237h-55q43 73 79.5 136t70.5 135l92 198l-230 457h83l192 -375l175 375h54q-20 -32 -36 -58t-29.5 -49.5t-27 -48t-26.5 -54.5h-1l-92 -198l264 -518h-89zM77 715h-16l436 -866h21z" />
    <glyph glyph-name="Y" unicode="Y" horiz-adv-x="595" 
d="M496 566q-40 -73 -79 -143t-81 -146v-458h-76v455l-260 471h84l238 -434l146 267q22 39 37 80.5t35 86.5h55zM306 277l-240 438h-16l239 -433l1 -433h16v428z" />
    <glyph glyph-name="Z" unicode="Z" horiz-adv-x="419" 
d="M419 -112q-37 -46 -97 -68t-123 -11q-44 9 -91 17t-108 8l305 881h-77q-32 0 -55.5 -0.5t-43.5 -2.5t-38 -5.5t-41 -8.5v47h350l-308 -887q28 -4 56 -9.5t56 -10.5q54 -10 107 9t84 61l24 -20v0zM337 715l-295 -851q5 0 9.5 -0.5t9.5 -0.5l295 852h-19z" />
    <glyph glyph-name="bracketleft" unicode="[" horiz-adv-x="111" 
d="M51 619v-818h-16v818h16zM104 -224v25h-28v818h28v25h-94v-868h94z" />
    <glyph glyph-name="backslash" unicode="\" horiz-adv-x="252" 
d="M218 -66l-228 609h39l227 -609h-38z" />
    <glyph glyph-name="bracketright" unicode="]" horiz-adv-x="111" 
d="M58 619v-818h16v818h-16zM5 -224v25h28v818h-28v25h94v-868h-94z" />
    <glyph glyph-name="asciicircum" unicode="^" horiz-adv-x="342" 
d="M320 134l-130 237h-38l-130 -237l34 -19l115 210l115 -210z" />
    <glyph glyph-name="underscore" unicode="_" horiz-adv-x="250" 
d="M250 -12v31h-250v-31h250z" />
    <glyph glyph-name="grave" unicode="`" horiz-adv-x="273" 
d="M202 208l7 15l-120 81l-17 -32z" />
    <glyph glyph-name="a" unicode="a" horiz-adv-x="354" 
d="M147 51q-39 0 -66 27t-27 66q0 37 27 63.5t64 26.5h32l-44 79l42 24l165 -285h-193v-1zM147 187q-18 0 -31 -13.5t-13 -29.5q0 -18 13 -31.5t29 -13.5h110l-50 88h-58z" />
    <glyph glyph-name="b" unicode="b" horiz-adv-x="298" 
d="M54 51v567h49v-353h72q45 0 76.5 -31.5t31.5 -76.5q0 -43 -31.5 -74t-74.5 -31zM103 217v-118h72q26 0 43 17t17 41t-17 42t-41 18h-74z" />
    <glyph glyph-name="c" unicode="c" horiz-adv-x="273" 
d="M162 51q-45 0 -76.5 31.5t-31.5 74.5q0 45 31.5 76.5t74.5 31.5h93v-48h-91q-26 0 -43 -18t-17 -42t17 -40.5t41 -16.5h93v-48h-91v-1z" />
    <glyph glyph-name="d" unicode="d" horiz-adv-x="302" 
d="M162 51q-45 0 -76.5 31.5t-31.5 74.5q0 45 31.5 76t74.5 31h75v385h48v-597h-121v-1zM162 217q-26 0 -42.5 -18t-16.5 -42q0 -22 16.5 -40t40.5 -18h75v118h-73z" />
    <glyph glyph-name="e" unicode="e" horiz-adv-x="298" 
d="M159 181h64q-13 21 -26 28.5t-26 7.5h-11q-24 0 -41 -18t-17 -42q0 -22 17 -39.5t40 -17.5h42v-49h-41q-43 0 -74.5 31.5t-31.5 74.5q0 45 30.5 76.5t74.5 31.5h10q45 0 76.5 -31.5t31.5 -74.5v-24h-118v46z" />
    <glyph glyph-name="f" unicode="f" horiz-adv-x="237" 
d="M117 -162h-48v376h-39v50h39v277q0 45 30.5 76.5t74.5 31.5h42v-48h-41q-24 0 -41 -18t-17 -42v-276h99v-49h-99v-378z" />
    <glyph glyph-name="g" unicode="g" horiz-adv-x="349" 
d="M283 216q17 -33 17 -59q0 -51 -45 -88q33 -29 42 -62l-47 -12q-12 30 -39.5 44.5t-57.5 5.5q-32 -8 -48.5 -37t-8.5 -61q7 -30 34 -47t57 -11l14 -48q-50 -11 -94 16t-58 77q-12 43 6 83.5t60 66.5q-28 34 -28 73q0 45 31.5 76.5t76.5 31.5h139v-49h-51v0zM195 216
q-26 0 -43 -16.5t-17 -42.5q0 -25 17 -41.5t43 -16.5q24 0 40.5 17t16.5 41t-16.5 41.5t-40.5 17.5z" />
    <glyph glyph-name="h" unicode="h" horiz-adv-x="305" 
d="M240 99q0 52 -34 84.5t-85 32.5q-10 0 -18 -3v-162h-49v598h49v-384h17q36 0 66.5 -12.5t53 -35t36 -52.5t13.5 -66v-47h-49v47z" />
    <glyph glyph-name="i" unicode="i" horiz-adv-x="139" 
d="M75 388h48v-49h-48v49zM75 265h48v-214h-48v214z" />
    <glyph glyph-name="j" unicode="j" horiz-adv-x="129" 
d="M66 388h49v-49h-49v49zM0 -111q28 3 47 21t19 48v307h49v-307q0 -50 -33.5 -83t-81.5 -36v50z" />
    <glyph glyph-name="k" unicode="k" horiz-adv-x="302" 
d="M237 85q0 38 -25 61t-59 23h-50v-118h-49v598h49v-433h29q24 0 38 16.5t14 38.5v24h50v-24q0 -33 -24 -67q36 -18 55.5 -49t19.5 -70v-33h-48v33z" />
    <glyph glyph-name="l" unicode="l" horiz-adv-x="132" 
d="M67 649h48v-597h-48v597z" />
    <glyph glyph-name="m" unicode="m" horiz-adv-x="427" 
d="M363 220q-62 0 -89 -37.5t-27 -86.5v-47h-48v171q-61 0 -88 -38t-27 -88v-45h-48v45q0 74 40.5 125t116.5 51q15 0 28 -4t26 -7v-31q53 42 110 42q15 0 28.5 -4t26.5 -7v-208h-49v169z" />
    <glyph glyph-name="n" unicode="n" horiz-adv-x="346" 
d="M276 105q-11 25 -26 45.5t-36 35.5q-24 16 -51.5 23.5t-60.5 4.5v-163h-50v204q17 3 33.5 6.5t32.5 3.5q81 0 158 -67v67h48v-213h-48v53z" />
    <glyph glyph-name="o" unicode="o" horiz-adv-x="324" 
d="M153 51q-45 0 -76.5 31.5t-31.5 74.5q0 45 31.5 76.5t74.5 31.5h47q43 0 74.5 -31.5t31.5 -76.5q0 -43 -30.5 -74t-74.5 -31zM153 217q-26 0 -42.5 -18t-16.5 -42q0 -22 16.5 -40t40.5 -18h47q25 0 41.5 18t16.5 40q0 24 -17 42t-40 18h-46z" />
    <glyph glyph-name="p" unicode="p" horiz-adv-x="300" 
d="M103 52v-354h-49v567h121q45 0 76.5 -31.5t31.5 -76.5q0 -43 -31.5 -74t-74.5 -31h-74zM103 216v-117h72q26 0 43 17t17 41q0 26 -17 42.5t-41 16.5h-74z" />
    <glyph glyph-name="q" unicode="q" horiz-adv-x="302" 
d="M234 51h-72q-45 0 -76.5 31.5t-31.5 74.5q0 45 31.5 76.5t74.5 31.5h123v-567h-49v353zM162 216q-26 0 -43 -16.5t-17 -42.5q0 -24 17 -41t41 -17h74v117h-72z" />
    <glyph glyph-name="r" unicode="r" horiz-adv-x="315" 
d="M288 213q-14 4 -29 4q-25 0 -50 -8t-46 -23t-36.5 -36t-24.5 -45v-54h-48v214h48v-69q10 12 14 14.5t7 5.5t5 3.5t5 3.5q51 41 125 41h21q10 0 19 -3l-10 -48v0z" />
    <glyph glyph-name="s" unicode="s" horiz-adv-x="298" 
d="M253 247q-25 0 -42.5 -17t-17.5 -41v-66q0 -45 -32 -76.5t-76 -31.5h-33v48h32q25 0 42.5 17t17.5 41v66q0 45 32 76.5t76 31.5h33v-48h-32v0z" />
    <glyph glyph-name="t" unicode="t" horiz-adv-x="234" 
d="M163 51h-48v163h-48v50h48v181h48v-180h48v-49h-48v-165z" />
    <glyph glyph-name="u" unicode="u" horiz-adv-x="283" 
d="M160 51q-43 0 -74.5 31.5t-31.5 74.5v108h48v-108q0 -22 16.5 -40t40.5 -18q25 0 41.5 18t16.5 40v108h50v-108q0 -43 -31.5 -74t-75.5 -31v-1z" />
    <glyph glyph-name="v" unicode="v" horiz-adv-x="344" 
d="M121 45q-18 0 -34.5 3.5t-32.5 8.5v208h49v-171h17q39 0 68 13.5t48.5 37.5t29.5 55t11 65h48q0 -45 -14 -85.5t-41 -69.5t-64.5 -46.5t-84.5 -17.5v-1z" />
    <glyph glyph-name="w" unicode="w" horiz-adv-x="432" 
d="M255 45q-15 0 -28.5 3.5t-27.5 6.5v32q-55 -42 -108 -42q-15 0 -28.5 3.5t-26.5 6.5v210h48v-171q63 0 89 37.5t26 87.5v46h48v-171q62 0 89 38.5t27 87.5v45h49v-45q0 -73 -41 -123.5t-116 -50.5v-1z" />
    <glyph glyph-name="x" unicode="x" horiz-adv-x="359" 
d="M187 153l-87 -102h-64l120 138l-66 76h64l33 -39l35 39h64l-66 -76l120 -137h-64z" />
    <glyph glyph-name="y" unicode="y" horiz-adv-x="341" 
d="M241 105q9 -5 12 -5v-48q-7 0 -16 1t-20 2l-105 -213l-43 21l100 207q-54 27 -83 79t-32 116h49q3 -49 24 -89.5t65 -61.5l73 151h56l-80 -160v0z" />
    <glyph glyph-name="z" unicode="z" horiz-adv-x="302" 
d="M178 214h-112v51h208l-123 -165h135v-48h-232z" />
    <glyph glyph-name="braceleft" unicode="{" horiz-adv-x="137" 
d="M34 150q12 12 12 34v383q0 25 17 39v-914q-18 15 -18 39v383q0 11 -2.5 20t-7.5 14zM136 -347v25h-28q-5 0 -10.5 0.5t-10.5 1.5v937q5 1 10.5 1.5t11.5 0.5h27v25h-28q-36 0 -62 -18.5t-26 -58.5v-383q0 -13 -6 -18q-3 -4 -13 -4v-1v-24v-1q12 0 15 -4q4 -4 4 -18v-383
q0 -39 26.5 -58.5t62.5 -19.5h27z" />
    <glyph glyph-name="bar" unicode="|" horiz-adv-x="60" 
d="M51 -402v1001h-42v-1001h42z" />
    <glyph glyph-name="braceright" unicode="}" horiz-adv-x="155" 
d="M113 150q-12 12 -12 34v383q0 14 -4.5 23t-12.5 16v-914q17 15 17 39v383q0 11 2.5 20t7.5 14zM11 -347v25h27q5 0 10.5 0.5t10.5 1.5v937q-5 1 -10.5 1.5t-10.5 0.5h-27v25h27q36 0 62 -18.5t26 -58.5v-383q0 -12 6 -18q4 -4 13 -4v-1v-24v-1q-11 0 -14 -4q-5 -5 -5 -18
v-383q0 -39 -26 -58.5t-62 -19.5h-27z" />
    <glyph glyph-name="asciitilde" unicode="~" horiz-adv-x="414" 
d="M345 179q-21 -14 -45.5 -16.5t-47.5 6.5l-101 41q-34 14 -66 -7q-14 -9 -21.5 -23t-8.5 -31h-30q1 24 12 45t31 34q21 14 46 16t48 -7l100 -40q35 -14 66 6q29 19 31 54h30q-1 -24 -12.5 -44.5t-31.5 -33.5z" />
    <glyph glyph-name="dagger" unicode="&#x2020;" horiz-adv-x="153" 
d="M93 265h49v33h-50v135h-32v-136h-49v-33h50v-372h32v373z" />
    <glyph glyph-name="degree" unicode="&#xb0;" horiz-adv-x="154" 
d="M77 348q23 0 39.5 16.5t16.5 39.5t-17 39.5t-40 16.5t-39 -16.5t-16 -39.5t16.5 -40t39.5 -17v1zM77 444q16 0 28 -11.5t12 -28.5q0 -16 -12 -28.5t-29 -12.5q-16 0 -27.5 12.5t-11.5 28.5t11.5 28t28.5 12z" />
    <glyph glyph-name="section" unicode="&#xa7;" horiz-adv-x="159" 
d="M118 412l12 7l-16 28l-13 -8q-33 -21 -49 -56t-10 -73q-26 -31 -29.5 -71t17.5 -76l43 -73q10 -17 12 -35t-2.5 -35t-15.5 -32t-27 -25l-12 -7l18 -28l12 7q34 19 49.5 55.5t8.5 74.5q26 31 30 71t-17 75l-44 73q-10 16 -12 34.5t2.5 36t15 32.5t27.5 25zM102 194
q11 -19 12 -42.5t-10 -49.5l-47 78q-25 40 -2 92z" />
    <glyph glyph-name="bullet" unicode="&#x2022;" horiz-adv-x="200" 
d="M153 178q0 22 -15.5 37.5t-37.5 15.5t-37.5 -15.5t-15.5 -37.5t15.5 -37t37.5 -15t37.5 15t15.5 37z" />
    <glyph glyph-name="paragraph" unicode="&#xb6;" horiz-adv-x="248" 
d="M201 -108h32v541h-33zM138 -108h35v541h-57q-21 0 -39 -8t-32 -22t-22 -32t-8 -39t8 -39t22 -32t32 -22t39 -8h23z" />
    <glyph glyph-name="registered" unicode="&#xae;" horiz-adv-x="220" 
d="M110 273q40 0 68 27.5t28 67.5q0 19 -7.5 36.5t-20.5 30.5t-30.5 20.5t-37.5 7.5t-37.5 -7.5t-30.5 -20.5t-20.5 -30.5t-7.5 -36.5q0 -40 28 -68t68 -28v1zM110 452q34 0 59 -25t25 -59q0 -35 -24.5 -60t-59.5 -25q-18 0 -33 7t-26.5 18.5t-18 27t-6.5 32.5t6.5 32
t18 26.5t26.5 18.5t33 7zM146 311l10 7l-18 24q18 18 18 36q0 19 -13.5 32.5t-32.5 13.5h-33v-13h12v-94h12v95h9q14 0 24 -10t10 -24q0 -8 -4.5 -16t-12.5 -13l-5 -3z" />
    <glyph glyph-name="copyright" unicode="&#xa9;" horiz-adv-x="448" 
d="M224 35q41 0 77.5 15.5t63.5 42.5t43 63t16 77q0 42 -16 78.5t-43 63.5t-63.5 42.5t-77.5 15.5t-77.5 -15.5t-63.5 -42.5t-43 -63.5t-16 -78.5q0 -41 16 -77t43 -63t63.5 -43t77.5 -16v1zM224 421q39 0 73 -15t59.5 -40.5t40.5 -59.5t15 -73q0 -38 -15 -72.5t-40.5 -60
t-59.5 -40.5t-73 -15t-73.5 15t-60 40.5t-40 60t-14.5 72.5q0 39 15 73t40.5 59.5t59.5 40.5t73 15zM136 145q18 -18 40 -27t45 -9q24 0 47 8t41 25l-23 24q-14 -12 -30.5 -18t-34.5 -6q-17 0 -33 7t-29 20q-27 27 -27 64q0 38 27 65q13 13 29 20t33 7q18 0 34.5 -6
t30.5 -18l23 24q-18 17 -41 25t-47 8q-23 0 -45 -9t-40 -27t-27 -41.5t-9 -47.5t9 -47t27 -41z" />
    <glyph glyph-name="trademark" unicode="&#x2122;" horiz-adv-x="315" 
d="M278 331h19v132h-27l-43 -75l-43 75h-27v-133h20v109l50 -88l51 88v-108zM82 444h45v19h-109v-20h46v-113h19z" />
    <glyph glyph-name="plusminus" unicode="&#xb1;" horiz-adv-x="250" 
d="M140 158h56v32h-56v55h-32v-56h-54v-32h54v-55h32v56zM54 34h142v33h-142v-33z" />
    <glyph glyph-name="logicalnot" unicode="&#xac;" horiz-adv-x="250" 
d="M164 118h32v72h-142v-33h110v-39z" />
    <glyph glyph-name="guillemotleft" unicode="&#xab;" horiz-adv-x="222" 
d="M150 104h37l-47 77l47 78h-37l-48 -78zM80 103h37l-47 78l47 78h-37l-48 -78z" />
    <glyph glyph-name="guillemotright" unicode="&#xbb;" horiz-adv-x="222" 
d="M80 104h-37l47 77l-47 78h37l48 -78zM150 103h-37l47 78l-47 78h37l48 -78z" />
    <glyph glyph-name="ellipsis" unicode="&#x2026;" horiz-adv-x="399" 
d="M330 29q11 0 19 7.5t8 19.5t-8 20t-20 8q-11 0 -19 -8t-8 -20t8 -20t20 -8v1zM199 28q12 0 20 8t8 20t-8 20t-20 8q-11 0 -19 -8t-8 -20t8 -20t20 -8h-1zM69 28q12 0 20 8t8 20t-8 20t-20 8q-11 0 -19 -8t-8 -20t8 -20t20 -8h-1z" />
    <glyph glyph-name="nonbreakingspace" unicode="&#xa0;" horiz-adv-x="250" 
 />
    <glyph glyph-name="endash" unicode="&#x2013;" horiz-adv-x="250" 
d="M27 146h202v32h-203z" />
    <glyph glyph-name="emdash" unicode="&#x2014;" horiz-adv-x="500" 
d="M22 146h457v32h-458z" />
    <glyph glyph-name="quotedblleft" unicode="&#x201c;" horiz-adv-x="138" 
d="M3 524l34 -14l45 134l-14 6zM52 524l35 -14l45 134l-14 6z" />
    <glyph glyph-name="quotedblright" unicode="&#x201d;" horiz-adv-x="140" 
d="M135 631l-34 14l-45 -134l13 -6zM85 631l-34 14l-45 -134l13 -6z" />
    <glyph glyph-name="quoteleft" unicode="&#x2018;" horiz-adv-x="123" 
d="M12 524l34 -14l45 134l-13 6z" />
    <glyph glyph-name="quoteright" unicode="&#x2019;" horiz-adv-x="90" 
d="M85 631l-34 14l-45 -134l13 -6z" />
    <glyph glyph-name="currency" unicode="&#xa4;" horiz-adv-x="298" 
d="M265 281l13 30q-35 23 -79 23q-54 0 -94 -33.5t-53 -86.5h-21l-9 -22h28q-2 -10 0 -21h-20l-9 -22h31q13 -52 53 -85t94 -33q9 0 18 1t17 3l-8 31q-7 -2 -14 -2h-13q-39 0 -69.5 23t-44.5 63h123l10 22h-138v21h147l9 22h-151q14 39 44.5 62.5t69.5 23.5q35 0 66 -20z
" />
    <glyph glyph-name="guilsinglleft" unicode="&#x2039;" horiz-adv-x="150" 
d="M79 104h37l-47 77l47 78h-37l-48 -78z" />
    <glyph glyph-name="guilsinglright" unicode="&#x203a;" horiz-adv-x="150" 
d="M80 109h-37l47 77l-47 78h37l48 -78z" />
    <glyph glyph-name="daggerdbl" unicode="&#x2021;" horiz-adv-x="153" 
d="M93 29h49v32h-50v204h50v33h-50v135h-32v-136h-49v-33h50v-204h-50v-32h50v-136h32v137z" />
    <glyph glyph-name="periodcentered" unicode="&#xb7;" horiz-adv-x="95" 
d="M48 154q11 0 19 7.5t8 19.5t-8 20t-20 8q-11 0 -19 -8t-8 -20t8 -20t20 -8v1z" />
    <glyph glyph-name="quotesinglbase" unicode="&#x201a;" horiz-adv-x="123" 
d="M45 -91l59 142l-26 10l-59 -142z" />
    <glyph glyph-name="quotedblbase" unicode="&#x201e;" horiz-adv-x="192" 
d="M114 -91l60 142l-26 10l-60 -142zM44 -91l60 142l-26 10l-60 -142z" />
    <glyph glyph-name="perthousand" unicode="&#x2030;" horiz-adv-x="461" 
d="M378 35q26 0 44.5 18t18.5 44t-18.5 44.5t-44.5 18.5t-44.5 -18.5t-18.5 -44.5t18.5 -44.5t44.5 -18.5v1zM83 186q26 0 44.5 18t18.5 44t-18.5 44.5t-44.5 18.5t-44.5 -18.5t-18.5 -44.5t18.5 -44.5t44.5 -18.5v1zM230 34q26 0 44.5 18.5t18.5 44.5t-18.5 44.5
t-44.5 18.5t-44.5 -18.5t-18.5 -44.5t18.5 -44.5t44.5 -18.5zM80 8l170 294l-28 17l-170 -294zM378 127q12 0 21 -9t9 -21t-8.5 -21.5t-21.5 -9.5q-12 0 -21.5 9.5t-9.5 21.5q0 13 9.5 21.5t21.5 8.5zM83 278q12 0 21 -9t9 -21t-8.5 -21.5t-21.5 -9.5q-12 0 -21.5 9.5
t-9.5 21.5q0 13 9.5 21.5t21.5 8.5zM230 126q12 0 21 -8.5t9 -20.5t-8.5 -21.5t-21.5 -9.5q-12 0 -21.5 9.5t-9.5 21.5q0 13 9.5 21.5t21.5 8.5v-1z" />
    <glyph glyph-name="mu1" unicode="&#xb5;" horiz-adv-x="201" 
d="M139 61q22 -23 49 -26v32q-14 3 -23.5 13.5t-9.5 24.5v72h-32v-72q0 -15 -11.5 -27t-26.5 -12t-27 10t-12 25v76h-33v-207h34v75q21 -11 38 -11q30 0 54 27z" />
    <glyph glyph-name="brokenbar" unicode="&#xa6;" horiz-adv-x="60" 
d="M14 130h32v465h-32v-465zM14 -401h32v486h-32v-486z" />
    <glyph glyph-name="afii10017" unicode="&#x410;" horiz-adv-x="929" 
d="M919 16q-31 -33 -72 -53.5t-86 -26.5l47 -117h-84l-48 122l-453 53q-6 1 -12 1h-11q-15 -43 -26 -85t-25 -91h-52l69 174q-39 -6 -73.5 -23.5t-61.5 -46.5l-21 22q33 35 75.5 55t92.5 24l4 12l228 580l-19 49l37 111l322 -812q42 4 80.5 23t67.5 50zM430 685l-6 -19
l321 -817h17zM427 574l-216 -550q5 0 8.5 -0.5t7.5 -0.5l437 -52z" />
    <glyph glyph-name="afii10018" unicode="&#x411;" horiz-adv-x="483" 
d="M424 745v-49q-46 11 -106 15t-129 4h2v-187q55 -17 103 -50.5t83 -79t55 -101.5t20 -119q0 -67 -22.5 -131.5t-62 -115t-93.5 -81.5t-118 -31h-42v692q-4 1 -12 1h-12q-15 0 -30 -1t-31 -5l-7 29q32 7 68 7h12q8 0 12 -1l1 204h309zM422 178q0 64 -23 120.5t-61 101.5
q31 -46 47.5 -103t16.5 -121q0 -82 -29 -154t-80 -123q30 23 53.5 54.5t40.5 68t26 76.5t9 80zM372 176q0 54 -13 103t-37 90t-57.5 72t-73.5 49v-628q40 18 73.5 49.5t57.5 72.5t37 90t13 102zM161 715h-17v-866h9.5t7.5 2v864z" />
    <glyph glyph-name="afii10019" unicode="&#x412;" horiz-adv-x="373" 
d="M200 331q32 30 50 74t18 94q0 51 -18 94t-50 73q21 -32 33 -75t12 -92t-12 -91.5t-33 -76.5zM349 50q0 -46 -20.5 -89t-55.5 -74t-82.5 -49.5t-101.5 -18.5h-65v926h60q43 0 82 -19t68 -52.5t46.5 -78t17.5 -96.5q0 -38 -10 -73.5t-28 -65t-42 -52t-52 -37.5
q39 -11 72.5 -32.5t58.5 -50t38.5 -64t13.5 -74.5zM100 284q25 5 46 24.5t36 48t24 65t9 77.5t-9 77t-24 65t-36 47.5t-46 24.5v-429zM71 715h-17v-866h16zM100 -150q33 4 63 20.5t53 43.5t35.5 62t12.5 74q0 40 -12.5 75t-35 62t-52.5 43.5t-63 20.5v-401h-1zM294 50
q0 -42 -12.5 -79t-35.5 -67q34 28 53.5 65.5t19.5 80.5q0 45 -19.5 82.5t-54.5 65.5q23 -30 36 -68t13 -80z" />
    <glyph glyph-name="afii10020" unicode="&#x413;" horiz-adv-x="441" 
d="M400 745v-49q-46 11 -113.5 15t-135.5 4h-40v-896h-76v926h365zM81 715h-16v-866h16v866z" />
    <glyph glyph-name="afii10021" unicode="&#x414;" horiz-adv-x="541" 
d="M339 -176h-139q-33 0 -57 -1t-43.5 -3t-37.5 -5.5t-40 -8.5v48h85q-12 57 -5.5 126.5t21.5 145.5t33 155t30 155t13 146t-19 128q-31 -2 -59 -5.5t-50 -8.5v49h365v-891h82v-48q-23 5 -41.5 8.5t-38 5.5t-43 3t-56.5 1zM360 715h-40q-56 0 -110 -3q20 -62 19 -133.5
t-12.5 -147.5t-30 -154t-33 -152.5t-21.5 -143.5t4 -127h224v861zM406 715h-16v-861h16v861z" />
    <glyph glyph-name="afii10022" unicode="&#x415;" horiz-adv-x="469" 
d="M469 190q-20 -24 -49.5 -38t-64.5 -12l-157 8v-299h41q33 0 56.5 1t43 3t38 5.5t41.5 9.5v-49h-296v335h-10q-27 2 -49.5 -10t-38.5 -31l-24 19q20 24 49.5 38.5t63.5 11.5h9v563h296v-48q-23 5 -41.5 8.5t-38 6t-43 3t-56.5 0.5h-41v-539l160 -7q27 -1 49.5 10t37.5 30z
M168 715h-16v-866h16v866z" />
    <glyph glyph-name="afii10024" unicode="&#x416;" horiz-adv-x="944" 
d="M476 713h-16v-866h16v866zM506 -183h-76v513q-79 -6 -127 -28.5t-73.5 -56t-31.5 -74t-1.5 -82t17 -81t24.5 -70.5q12 -30 2 -58t-31 -45.5t-47.5 -20.5t-48.5 18q-6 5 -12.5 15t-9.5 21.5t1 21.5t19 15q13 5 22.5 -2.5t11.5 -11.5q4 -6 1.5 -12.5t-6 -12.5t-6 -11.5
t0.5 -9.5q14 -15 27.5 -15.5t22.5 9t10 27.5t-10 39q-15 28 -30.5 61.5t-27 67.5t-17.5 67t-2 61q4 31 23.5 64t56 60.5t93 45.5t134.5 18q-48 -3 -79 13t-51 44t-30.5 63.5t-17.5 71.5t-12 68.5t-14 54.5q-6 16 -27 25.5t-48 13.5t-56 3.5t-53 -5.5v35q50 0 85 -2t59 -8.5
t39.5 -18.5t26.5 -31q12 -21 18.5 -53.5t13 -68t16 -70.5t27 -61t45.5 -39t73 -6v364h76v-364q44 -8 72.5 5.5t46 39.5t27 61t16 70.5t13 68t18.5 53.5q11 19 26.5 31t39.5 18.5t59 8.5t85 2v-34q-29 6 -60 6t-57.5 -5.5t-45.5 -15t-24 -23.5q-8 -22 -13 -54.5t-11.5 -68.5
t-17 -71.5t-30 -63.5t-50.5 -44t-79 -13q78 0 134.5 -18t93 -45.5t55.5 -60.5t24 -64q4 -28 -2 -61t-17.5 -67t-27 -67.5t-30.5 -61.5q-11 -21 -10 -39t10 -27.5t22.5 -9t27.5 15.5q3 4 0.5 9.5t-6 11.5t-6 12.5t1.5 12.5q2 4 11.5 11.5t22.5 2.5q15 -5 19 -15t1 -21.5
t-9.5 -21.5t-12.5 -15q-22 -21 -48.5 -18t-47.5 20.5t-31 45.5t2 58q12 31 24.5 70.5t17 81t-1.5 82t-31.5 74t-73.5 56t-127 28.5v-513zM677 300q21 -15 40 -33t32.5 -40t20.5 -47.5t4 -56.5q-3 -33 -14 -69.5t-21.5 -70.5t-16.5 -63.5t1 -50.5q0 21 10 50.5t23 65t24.5 75
t13.5 80.5q1 25 -8.5 50t-26.5 47t-38.5 38.5t-43.5 24.5zM256 302q-22 -8 -43.5 -24.5t-38.5 -38.5t-27 -47t-8 -50q2 -41 13.5 -80.5t24.5 -75t23 -65t10 -50.5q7 21 1 50.5t-16.5 63.5t-21.5 70.5t-14 69.5q-3 31 4 56.5t20.5 47.5t32.5 40t40 33z" />
    <glyph glyph-name="afii10025" unicode="&#x417;" horiz-adv-x="612" 
d="M464 255q31 -41 51.5 -88t20.5 -95t-13.5 -89.5t-33.5 -73.5q32 29 54 71t22 92q0 24 -8 50t-21.5 50t-32 45.5t-39.5 37.5zM426 699q42 -42 59 -85t17 -91t-18.5 -87.5t-51.5 -73.5q21 17 39 32.5t31.5 33.5t21.5 41t9 54q2 61 -27.5 104t-79.5 72zM131 160
q-50 -24 -73.5 -60t-23.5 -75t21.5 -76t62.5 -63q-27 28 -42.5 64t-16 73.5t16.5 73t55 63.5zM103 538q-3 53 18 92t55 65q27 22 58 33t63 13.5t63.5 -2.5t60.5 -15q61 -22 97 -63t47 -89q9 -37 1.5 -75.5t-31 -73t-64 -63t-97.5 -45.5q54 -11 95.5 -36.5t70 -60t43.5 -75
t15 -81.5q0 -53 -24 -98t-66 -78t-98 -51.5t-120 -18.5q-41 0 -89 12.5t-89 37.5t-69 63.5t-28 90.5v1q0 40 12.5 70.5t35 50.5t53.5 30.5t68 10.5q29 0 53.5 -10t42.5 -26.5t28 -39t10 -47.5q0 -31 -15 -61l-27 15q11 24 11 44q0 38 -24 65t-66 31l-9 -1q-25 0 -44.5 -10.5
t-33.5 -28.5t-21.5 -42t-7.5 -52v-1q0 -54 31 -99t88 -62h1q48 -13 89 -13q74 0 122.5 31t72 78.5t23 104.5t-23.5 108t-67.5 89t-108.5 48l2 24q43 3 76 26t54 56.5t29.5 74.5t2.5 80q-4 28 -14 53.5t-28.5 45t-47.5 32.5t-72 15q-32 1 -64.5 -10.5t-58 -34t-39.5 -55.5
t-8 -73h-37z" />
    <glyph glyph-name="afii10026" unicode="&#x418;" horiz-adv-x="444" 
d="M43 360l1 2v381h30v-432q31 35 69.5 65t81.5 55q52 30 93 70t55 96v146h30v-58v-863h-30v621q-24 -28 -53 -49.5t-63 -40.5q-37 -20 -70 -45.5t-58 -56t-40 -66.5t-15 -78v-285h-30v537zM74 223q27 51 71 88.5t98 67.5q38 22 72 49.5t58 61.5v35q-24 -38 -59 -67t-75 -53
q-51 -30 -93 -65t-72 -81v-36z" />
    <glyph glyph-name="afii10027" unicode="&#x419;" horiz-adv-x="446" 
d="M40 360l1 2v381h30v-432q31 35 69.5 65t81.5 55q52 30 93 70t55 96v146h30v-58v-863h-30v621q-24 -28 -53 -49.5t-63 -40.5q-37 -20 -70 -45.5t-58 -56t-40 -66.5t-15 -78v-285h-30v537zM71 223q27 51 71 88.5t98 67.5q38 22 72 49.5t58 61.5v35q-24 -38 -59 -67t-75 -53
q-51 -30 -93 -65t-72 -81v-36zM226 801q-24 0 -45 7.5t-38.5 21.5t-29 32.5t-15.5 41.5l29 3q7 -35 35 -56t63 -21q36 0 64 21t35 56l28 -3q-8 -45 -43.5 -74t-82.5 -29z" />
    <glyph glyph-name="afii10028" unicode="&#x41a;" horiz-adv-x="875" 
d="M875 -16q-15 -36 -40 -66.5t-57.5 -52t-71.5 -33.5t-82 -12q-47 0 -94.5 14.5t-93.5 35t-89 43.5t-82 41q-31 15 -68 21v-156h-76v159q-45 -3 -83 -24q-6 -2 -12 -5.5t-12 -6.5l-14 27q32 17 62 35.5t59 38.5v702h76v-641q145 128 237.5 300.5t112.5 374.5l29 -3
q-11 -108 -42 -208t-79.5 -190.5t-114 -170t-143.5 -143.5v-59q23 -4 42.5 -9.5t37.5 -14.5q37 -18 80 -41t86.5 -43.5t89 -34t91.5 -13.5q77 0 137 41.5t85 105.5zM167 715h-16v-866h16v866z" />
    <glyph glyph-name="afii10029" unicode="&#x41b;" horiz-adv-x="417" 
d="M348 -151h19v867h-19v-867zM318 717q-42 -5 -80 -28.5t-65 -50.5q-46 -47 -66 -107t-22.5 -125.5t8.5 -133t27.5 -129.5t35.5 -114t32 -86q16 -42 7.5 -72t-29.5 -44.5t-48.5 -12t-50.5 24.5q-6 6 -13 17t-10 23.5t1 23.5t19 16q14 4 23.5 -3.5t12.5 -11.5q4 -6 2 -13
t-6 -13.5t-6.5 -12.5t0.5 -10q15 -17 32.5 -16.5t29.5 14t14.5 37t-13.5 52.5q-20 44 -40 84.5t-37 78.5q-35 79 -53.5 151.5t-9.5 147.5q6 47 22 91.5t41 83.5t58 72t72 56q20 11 37.5 19t34.5 12.5t36 6t42 1.5l41 -1v-926h-49.5t-28.5 1zM57 383q-1 42 9.5 83t29.5 79
t45.5 73.5t58.5 67.5q-38 -27 -69 -64t-52.5 -78.5t-33 -84.5t-11.5 -83q0 -38 7.5 -84t20.5 -91.5t30.5 -86.5t37.5 -68q-14 31 -26.5 73.5t-22.5 88.5t-16.5 91.5t-7.5 83.5z" />
    <glyph glyph-name="afii10030" unicode="&#x41c;" horiz-adv-x="683" 
d="M577 -181v830l-217 -282l26 -33l-49 -62l-278 362v-812h-30v977l312 -405l313 406v-981h-77zM624 710l-17 -21v-840h17v861zM347 334q-1 2 0 1t-3 4l-18 22.5t-45 58.5t-84.5 110.5t-137.5 178.5v-25q80 -106 131.5 -173t82.5 -106t44 -56.5t16.5 -22t2.5 -3.5t1 -1z" />
    <glyph glyph-name="afii10031" unicode="&#x41d;" horiz-adv-x="618" 
d="M618 190q-22 -27 -52 -43t-64 -20v-308h-76v308l-235 12v-320h-76v321q-57 -9 -91 -52l-24 19q44 54 115 63v575h76v-577l235 -11v588h76v-589q27 5 51.5 18.5t42.5 34.5zM472 715h-16v-866h16v866zM161 715h-16v-866h16v866z" />
    <glyph glyph-name="afii10032" unicode="&#x41e;" horiz-adv-x="912" 
d="M883 287q0 -111 -33.5 -200t-91.5 -151.5t-136 -96t-166 -33.5t-166 37.5t-136 103t-91.5 152.5t-33.5 187q0 98 33.5 185t91.5 152t136 102.5t166 37.5v-30q-71 0 -132 -35.5t-107.5 -96t-72.5 -142t-26 -173.5q0 -93 26 -174.5t72.5 -142.5t107.5 -97t131 -36h1
q70 0 131.5 33t108 91t72.5 138t26 172q0 88 -17 163t-47 130t-71 86t-88 31v2h-3q-36 0 -68 -12t-58.5 -35.5t-44.5 -55.5t-25 -71l-29 4q9 46 29 82.5t50 62.5t67.5 39.5t78.5 13.5h3q6 0 10.5 -0.5t10.5 -0.5q55 -7 107.5 -39.5t93.5 -87t65.5 -129.5t24.5 -166zM853 287
q0 103 -32.5 183.5t-82.5 131.5q40 -60 63 -144.5t23 -187.5t-30.5 -189.5t-83.5 -148.5q66 58 104.5 148t38.5 207zM198 -56q-52 66 -81 153t-29 189q0 100 29 187t81 152q-65 -61 -102 -149t-37 -190q0 -104 37 -192t102 -150z" />
    <glyph glyph-name="afii10033" unicode="&#x41f;" horiz-adv-x="618" 
d="M618 773q-22 -27 -52 -43t-64 -20v-891h-76v891l-235 3v-894h-76v895q-57 -9 -91 -52l-24 19q43 54 115 63l311 -3l76 2q29 2 52.5 15t41.5 34zM472 715h-16v-866h16v866zM161 715h-16v-866h16v866z" />
    <glyph glyph-name="afii10034" unicode="&#x420;" horiz-adv-x="451" 
d="M430 386q0 -62 -20 -118.5t-55 -102t-83 -79t-103 -50.5v-217h-77v204q-6 -1 -12 -1h-12q-34 0 -68 7l7 29q16 -4 31 -5t30 -1h12t12 1v692h42q64 0 118 -31t93.5 -81.5t62 -114.5t22.5 -132zM400 386q0 41 -9 80.5t-26 76.5t-40.5 68t-53.5 54q51 -51 80 -123t29 -154
q0 -64 -16.5 -121t-47.5 -103q38 45 61 101.5t23 120.5zM350 388q0 54 -13 102.5t-37.5 89t-57.5 72.5t-73 50v-628q40 18 73 49.5t57.5 72t37.5 89.5t13 103zM139 713q-7 2 -7.5 2h-9.5v-866h17v864z" />
    <glyph glyph-name="afii10035" unicode="&#x421;" horiz-adv-x="863" 
d="M844 438q0 -55 -19.5 -100t-53 -77.5t-79.5 -50t-99 -17.5h-3h-2q-31 0 -60 9t-53 25.5t-42.5 38t-28.5 47.5q-9 27 -11 55t5.5 55t23.5 51t42 42l17 -24q-43 -30 -53 -77.5t5 -91.5q16 -45 59.5 -72.5t97.5 -27.5q42 0 78 15.5t62.5 44t41.5 68t15 87.5q0 56 -19 103
t-52 82t-78 57t-96 30q-16 3 -32.5 4t-33.5 1q-82 0 -150.5 -35.5t-118.5 -94.5t-78.5 -139t-30.5 -169q-1 -90 24.5 -170.5t72 -139.5t112 -94.5t144.5 -35.5q106 0 197.5 51t160.5 150l24 -16q-71 -106 -168 -159.5t-209 -55.5h-11q-96 0 -174.5 36.5t-135.5 100.5
t-87.5 150t-28.5 183q3 97 37 182.5t94 148.5t143.5 100t182.5 37q40 0 80 -7q60 -11 112.5 -35.5t91.5 -63t61.5 -89.5t22.5 -112zM174 592q-58 -62 -91 -142t-35 -173q-2 -97 29.5 -180t90.5 -144q-49 64 -75 146.5t-23 177.5q2 90 29 170.5t75 144.5z" />
    <glyph glyph-name="afii10036" unicode="&#x422;" horiz-adv-x="480" 
d="M466 697q-23 5 -41 8.5t-38 6t-43.5 3t-56.5 0.5h-10v-896h-75v896h-10q-34 0 -57 -0.5t-43 -3t-38 -6t-40 -8.5v48h452v-48zM247 715h-15v-866h15v866z" />
    <glyph glyph-name="afii10037" unicode="&#x423;" horiz-adv-x="617" 
d="M352 108l-332 638h80l284 -529l90 250q25 67 42 135t39 143h53l-106 -289q-59 -163 -115.5 -319.5t-118.5 -322.5h-32zM82 716h-17l296 -560l5 25z" />
    <glyph glyph-name="afii10038" unicode="&#x424;" horiz-adv-x="627" 
d="M272 -51q-57 16 -104.5 49.5t-82 79.5t-54 102.5t-19.5 118.5q0 61 19 121t53.5 109t82.5 83t105 43v90h77v-95q57 -9 104.5 -43t82 -83t54 -109t19.5 -121q0 -62 -19.5 -118.5t-54 -102.5t-82 -79.5t-104.5 -49.5v-125h-77v130zM579 294q0 41 -9 81.5t-26 77t-41 68
t-54 54.5q51 -51 81 -123t30 -157q0 -63 -16.5 -119.5t-46.5 -102.5q38 45 60 101t22 120zM530 295q0 52 -13 101.5t-37 90.5t-57.5 73t-73.5 50v-629q40 18 73 49.5t57 72.5t37.5 90t13.5 102zM319 715h-17v-866h17v866zM42 299q0 -64 22 -120t60 -101q-30 46 -46.5 102.5
t-16.5 119.5q0 85 30 157t81 123q-30 -23 -54 -54.5t-41 -68t-26 -77t-9 -81.5zM91 300q0 -53 13.5 -102t37.5 -90t57 -72.5t73 -49.5v629q-40 -18 -73.5 -50t-57.5 -73t-37 -90.5t-13 -101.5z" />
    <glyph glyph-name="afii10039" unicode="&#x425;" horiz-adv-x="568" 
d="M479 -181l-220 435q-21 -45 -46.5 -99.5t-45.5 -98.5l-112 -237h-55q43 73 79.5 136t70.5 135l92 198l-230 457h83l192 -375l175 375h54q-20 -32 -36 -58t-29.5 -49.5t-27 -48t-26.5 -54.5h-1l-92 -198l264 -518h-89zM77 715h-16l436 -866h21z" />
    <glyph glyph-name="afii10040" unicode="&#x426;" horiz-adv-x="515" 
d="M483 -244q-13 24 -30 40.5t-46 18.5l-76 2l-311 -3v30v895h76v-894l235 2v892h76v-891q34 -4 62 -22.5t36 -49.5zM377 709h-16v-866h16v866zM66 709h-16v-866h16v866z" />
    <glyph glyph-name="afii10041" unicode="&#x427;" horiz-adv-x="444" 
d="M346 -181v442q-15 -12 -34 -20t-38 -13.5t-35 -8t-25 -2.5q-42 0 -78.5 16t-64 43.5t-43 64.5t-15.5 79v328h75v-351q0 -31 11 -59t30 -48.5t45.5 -32t56.5 -9.5q7 0 22.5 3t33 9t34 16t25.5 25v448h77v-930h-77zM393 719h-17v-870h17v870zM75 319q-17 39 -17 78v321h-15
v-298q0 -55 32 -101z" />
    <glyph glyph-name="afii10042" unicode="&#x428;" horiz-adv-x="741" 
d="M20 -156v892h76v-890l235 1v889h76v-891l235 2v889h76v-888v-34l-698 -1v31zM688 706h-16v-863h16v863zM377 706h-16v-863h16v863zM66 706h-16v-862h16v862z" />
    <glyph glyph-name="afii10043" unicode="&#x429;" horiz-adv-x="824" 
d="M15 -189v30v895h76v-894l235 2v895h76v-894l235 2v892h76v-891q34 -4 62 -22.5t36 -49.5l-22 -20q-13 24 -30 40.5t-46 18.5l-76 2l-311 -3zM683 709h-16v-866h16v866zM372 709h-16v-866h16v866zM61 706h-16v-866h16v866z" />
    <glyph glyph-name="afii10044" unicode="&#x42a;" horiz-adv-x="517" 
d="M213 715h-17v-866h16zM243 -150h-1q40 1 70.5 26t51.5 62.5t31.5 81.5t10.5 84t-12.5 77.5t-34.5 67t-52 47.5t-64 21v-467zM434 100q1 -39 -6.5 -73t-20 -61.5t-27.5 -49.5t-30 -38q19 12 39.5 38t36.5 58t25.5 65.5t8.5 60.5q-2 45 -23.5 98t-83.5 104q20 -26 35 -47
t25 -43.5t15 -48.5t6 -63zM166 707q-19 0 -57 -2.5t-84 -13.5v49l217 3v-393q67 -4 114.5 -27.5t77.5 -58t43.5 -77t13.5 -83.5q0 -47 -20.5 -97.5t-55.5 -92t-82.5 -68.5t-101.5 -27h-65v888z" />
    <glyph glyph-name="afii10045" unicode="&#x42b;" horiz-adv-x="498" 
d="M108 743v-393q67 -4 114.5 -27.5t77.5 -58t43.5 -77t13.5 -83.5q0 -47 -20.5 -97.5t-55.5 -92t-82.5 -68.5t-101.5 -27h-65v926zM79 715h-17v-866h16zM109 -150h-1q40 1 70.5 26t51.5 62.5t31.5 81.5t10.5 84t-12.5 77.5t-34.5 67t-52 47.5t-64 21v-467zM300 100
q1 -39 -6.5 -73t-20 -61.5t-27.5 -49.5t-30 -38q19 12 39.5 38t36.5 58t25.5 65.5t8.5 60.5q-2 45 -23.5 98t-83.5 104q20 -26 35 -47t25 -43.5t15 -48.5t6 -63zM382 -180v922h77v-922h-77zM429 712h-17v-862h17v862z" />
    <glyph glyph-name="afii10046" unicode="&#x42c;" horiz-adv-x="390" 
d="M110 743v-393q67 -4 114.5 -27.5t77.5 -58t43.5 -77t13.5 -83.5q0 -47 -20.5 -97.5t-55.5 -92t-82.5 -68.5t-101.5 -27h-65v926zM81 715h-17v-866h16zM111 -150h-1q40 1 70.5 26t51.5 62.5t31.5 81.5t10.5 84t-12.5 77.5t-34.5 67t-52 47.5t-64 21v-467zM302 100
q1 -39 -6.5 -73t-20 -61.5t-27.5 -49.5t-30 -38q19 12 39.5 38t36.5 58t25.5 65.5t8.5 60.5q-2 45 -23.5 98t-83.5 104q20 -26 35 -47t25 -43.5t15 -48.5t6 -63z" />
    <glyph glyph-name="afii10047" unicode="&#x42d;" horiz-adv-x="961" 
d="M383 745q100 0 181.5 -36.5t140 -100t91.5 -149t36 -182.5q0 -25 -1.5 -48.5t-5.5 -46.5q41 2 69 -12q30 -14 50 -38l-24 -19q-16 19 -38.5 31t-49.5 10h-12q-16 -75 -53 -138.5t-90.5 -110t-122.5 -72.5t-148 -26h-11q-112 2 -208.5 55.5t-168.5 159.5l24 16
q69 -100 160.5 -150.5t197.5 -50.5q64 0 119.5 23.5t99 65t74.5 98t46 123.5l-158 -7q-35 -2 -64.5 12t-49.5 38l24 19q15 -19 37.5 -30t49.5 -10l167 7q4 24 6 49.5t2 51.5q-2 89 -29 168.5t-75.5 139.5t-116 95t-149.5 35q-40 2 -83.5 -10.5t-87 -38t-85 -64t-75.5 -87.5
l-24 16q72 106 161.5 157t193.5 57zM677 592q48 -64 75 -144t29 -171q3 -96 -23 -178t-75 -146q60 61 91 144t29 180q-2 94 -35 173t-91 142z" />
    <glyph glyph-name="afii10048" unicode="&#x42e;" horiz-adv-x="1173" 
d="M1146 280q0 -111 -33.5 -200t-91.5 -151.5t-136 -96t-166 -33.5t-166 37.5t-136 103t-92 152.5q-8 20 -14 41l-106 6v-320h-76v321q-57 -9 -91 -52l-24 19q44 54 115 63v575h76v-577l99 -5q-12 56 -12 116q0 98 33.5 185t91.5 152t136 102.5t166 37.5v-30
q-71 0 -132 -35.5t-107.5 -96t-72.5 -142t-26 -173.5q0 -63 11 -120l57 -2q27 5 51.5 18.5t42.5 34.5l22 -19q-22 -27 -52 -43t-64 -20v-1l-50 2q4 -13 8 -25q26 -81 72.5 -142t107.5 -97t131 -36h1q70 0 131.5 33t108 91t72.5 138t26 172q0 88 -17 163t-47 130t-71 86
t-88 31v2h-3q-36 0 -68 -12t-58.5 -35.5t-44.5 -55.5t-25 -71l-29 4q9 46 29 82.5t50 62.5t67.5 39.5t78.5 13.5h3q6 0 10.5 -0.5t10.5 -0.5q55 -7 107.5 -39.5t93.5 -87t65.5 -129.5t24.5 -166zM1116 280q0 103 -32.5 183.5t-82.5 131.5q40 -60 63 -144.5t23 -187.5
t-30.5 -189.5t-83.5 -148.5q66 58 104.5 148t38.5 207zM461 -63q-52 66 -81 153t-29 189q0 100 29 187t81 152q-65 -61 -102 -149t-37 -190q0 -104 37 -192t102 -150zM175 715h-16v-866h16v866z" />
    <glyph glyph-name="afii10049" unicode="&#x42f;" horiz-adv-x="434" 
d="M153 241q-16 -15 -31 -30t-26 -31.5t-17.5 -36.5t-4.5 -45q2 -41 17 -76.5t31.5 -66t28.5 -56.5t8 -48q9 22 2 52t-20.5 62t-26.5 63.5t-16 56.5q-3 31 0 53.5t10.5 40.5t19 33t25.5 29zM319 280q-73 -11 -114.5 -34t-60.5 -53.5t-19 -66.5t10 -73t25 -73.5t27 -67.5
q12 -30 1.5 -57t-32 -43t-48.5 -17.5t-49 19.5q-6 5 -12.5 15t-9.5 21.5t1 21.5t19 15q13 5 22.5 -2.5t11.5 -11.5q4 -6 1.5 -12.5t-6 -12.5t-6 -11.5t0.5 -9.5q14 -15 27.5 -15.5t22.5 9t10 27.5t-10 39q-17 26 -33.5 53.5t-28.5 55.5t-18 56.5t-2 56.5q4 31 20.5 61.5
t42 56t59.5 44t74 24.5q-39 11 -73.5 32t-59.5 49.5t-39.5 63.5t-14.5 74q0 47 21.5 89t58.5 73.5t85.5 50t102.5 18.5h65v-926h-73zM344 -151h17v866h-16zM315 714q-34 -4 -65 -21t-55 -43.5t-38 -61t-14 -74.5q0 -41 14 -75.5t37.5 -61t54.5 -43.5t65 -21v401h1zM113 514
q0 84 48 146q-34 -28 -53.5 -65.5t-19.5 -80.5q0 -45 19.5 -82.5t54.5 -65.5q-23 30 -36 68t-13 80z" />
    <glyph glyph-name="afii10065" unicode="&#x430;" horiz-adv-x="354" 
d="M147 51q-39 0 -66 27t-27 66q0 37 27 63.5t64 26.5h32l-44 79l42 24l165 -285h-193v-1zM147 187q-18 0 -31 -13.5t-13 -29.5q0 -18 13 -31.5t29 -13.5h110l-50 88h-58z" />
    <glyph glyph-name="afii10066" unicode="&#x431;" horiz-adv-x="324" 
d="M153 51q-38 -1 -60.5 13t-33.5 37t-12.5 53t3.5 62q10 65 25 106t39 68t60 44t88 34l-1 -51q-27 -9 -54 -20t-49 -30t-37.5 -50.5t-19.5 -80.5q7 7 12.5 12t15 9t25.5 6t44 2q21 0 40 -8.5t34 -23.5t23.5 -34.5t8.5 -41.5q0 -21 -8.5 -40t-22.5 -33.5t-33 -23t-41 -8.5z
M153 217q-26 0 -42.5 -18t-16.5 -42q0 -22 16.5 -40t40.5 -18h47q25 0 41.5 18t16.5 40q0 24 -17 42t-40 18h-46z" />
    <glyph glyph-name="afii10067" unicode="&#x432;" horiz-adv-x="322" 
d="M104 183h60q14 0 23.5 9.5t9.5 31.5h-93v-41zM236 93q-19 51 -69 51h-63v-52zM104 53h-49v-1v85v47v82h193v-26q0 -33 -24 -67q13 -6 26.5 -18t24.5 -28t17.5 -34.5t6.5 -38.5z" />
    <glyph glyph-name="afii10068" unicode="&#x433;" horiz-adv-x="283" 
d="M262 214l-160 1v-164h-48v214h208v-51z" />
    <glyph glyph-name="afii10069" unicode="&#x434;" horiz-adv-x="339" 
d="M111 244q13 12 40 16.5t55 4t50.5 -4t27.5 -7.5v-165h42v-75h-42v32h-230v-32h-42v75q30 3 49.5 17t31.5 35.5t16 48.5t2 55zM235 88v132q-19 11 -43.5 9.5t-36.5 -9.5q4 -49 -11 -80t-41 -52h132z" />
    <glyph glyph-name="afii10070" unicode="&#x435;" horiz-adv-x="298" 
d="M159 181h64q-13 21 -26 28.5t-26 7.5h-11q-24 0 -41 -18t-17 -42q0 -22 17 -39.5t40 -17.5h42v-49h-41q-43 0 -74.5 31.5t-31.5 74.5q0 45 30.5 76.5t74.5 31.5h10q45 0 76.5 -31.5t31.5 -74.5v-24h-118v46z" />
    <glyph glyph-name="afii10072" unicode="&#x436;" horiz-adv-x="485" 
d="M236 51v85h-50q-34 0 -59 -23t-25 -61v0h-48v0q0 39 19.5 70t55.5 49q-24 34 -24 67v24h50v-24q0 -22 14 -38.5t38 -16.5h29v82h49v-81h29q24 0 38 16.5t14 38.5v24h50v-24q0 -33 -24 -67q36 -18 55.5 -49t19.5 -70v0h-48v0q0 38 -25 61t-59 23h-50v-85h-49v-1z" />
    <glyph glyph-name="afii10073" unicode="&#x437;" horiz-adv-x="268" 
d="M74 182q35 -1 54 2.5t26.5 9t5.5 12t-9 11.5q-5 3 -16 4.5t-26 2.5t-32.5 0.5t-33.5 -1.5v42q76 0 117 -2t51 -19q3 -6 5.5 -14t1.5 -16.5t-7 -17t-21 -16.5q26 -1 39.5 -9.5t19.5 -20t6.5 -22t-0.5 -16.5q-9 -38 -61 -50.5t-155 -6.5v37q26 -2 55.5 -1.5t55.5 4.5
q22 3 33 9.5t11 13.5t-10.5 13.5t-32.5 9.5q-19 3 -38 2t-39 -2v41z" />
    <glyph glyph-name="afii10074" unicode="&#x438;" horiz-adv-x="346" 
d="M273 265h51v-214h-50v162q-29 3 -55.5 -7t-49 -27.5t-40.5 -41t-29 -48.5v-37h-48v213h48v-99q9 15 26.5 31.5t41 30t50.5 23.5t55 13v1z" />
    <glyph glyph-name="afii10075" unicode="&#x439;" horiz-adv-x="346" 
d="M273 265h51v-214h-50v162q-29 3 -55.5 -7t-49 -27.5t-40.5 -41t-29 -48.5v-37h-48v213h48v-99q9 15 26.5 31.5t41 30t50.5 23.5t55 13v1zM193 345q-42 0 -71.5 26.5t-36.5 78.5l46 2q-2 -34 18 -51t43.5 -17t42.5 17t17 51l46 -1q-6 -52 -34.5 -79t-70.5 -27z" />
    <glyph glyph-name="afii10076" unicode="&#x43a;" horiz-adv-x="302" 
d="M237 57q0 38 -25 61t-59 23h-50v-90h-49v216h49v-79h29q24 0 38 16.5t14 38.5v24h50v-24q0 -33 -24 -67q36 -18 55.5 -49t19.5 -70v-5h-48v5z" />
    <glyph glyph-name="afii10077" unicode="&#x43b;" horiz-adv-x="344" 
d="M257 265q18 0 34.5 -3.5t32.5 -8.5v-200h-49v163h-17q-39 0 -68 -13.5t-48.5 -37.5t-29.5 -55t-11 -57h-48q0 37 14 77.5t41 69.5t64.5 46.5t84.5 17.5v1z" />
    <glyph glyph-name="afii10078" unicode="&#x43c;" horiz-adv-x="432" 
d="M193 265q15 0 28.5 -3.5t27.5 -6.5v-32q55 42 108 42q15 0 28.5 -3.5t26.5 -6.5v-202h-48v163q-63 0 -89 -37.5t-26 -87.5v-38h-48v163q-62 0 -89 -38.5t-27 -87.5v-37h-49v37q0 73 41 123.5t116 50.5v1z" />
    <glyph glyph-name="afii10079" unicode="&#x43d;" horiz-adv-x="341" 
d="M102 265v-79l174 -1v80h48v-213h-48v87h-174v-88h-50v213z" />
    <glyph glyph-name="afii10080" unicode="&#x43e;" horiz-adv-x="324" 
d="M153 51q-45 0 -76.5 31.5t-31.5 74.5q0 45 31.5 76.5t74.5 31.5h47q43 0 74.5 -31.5t31.5 -76.5q0 -43 -30.5 -74t-74.5 -31zM153 217q-26 0 -42.5 -18t-16.5 -42q0 -22 16.5 -40t40.5 -18h47q25 0 41.5 18t16.5 40q0 24 -17 42t-40 18h-46z" />
    <glyph glyph-name="afii10081" unicode="&#x43f;" horiz-adv-x="346" 
d="M324 265v-213h-48v168h-174v-169h-50v213z" />
    <glyph glyph-name="afii10082" unicode="&#x440;" horiz-adv-x="300" 
d="M103 52v-354h-49v567h121q45 0 76.5 -31.5t31.5 -76.5q0 -43 -31.5 -74t-74.5 -31h-74zM103 216v-117h72q26 0 43 17t17 41q0 26 -17 42.5t-41 16.5h-74z" />
    <glyph glyph-name="afii10083" unicode="&#x441;" horiz-adv-x="273" 
d="M162 51q-45 0 -76.5 31.5t-31.5 74.5q0 45 31.5 76.5t74.5 31.5h93v-48h-91q-26 0 -43 -18t-17 -42t17 -40.5t41 -16.5h93v-48h-91v-1z" />
    <glyph glyph-name="afii10084" unicode="&#x442;" horiz-adv-x="288" 
d="M180 51h-48v163h-82v50l211 1v-49h-81v-165z" />
    <glyph glyph-name="afii10085" unicode="&#x443;" horiz-adv-x="341" 
d="M241 105q9 -5 12 -5v-48q-7 0 -16 1t-20 2l-105 -213l-43 21l100 207q-54 27 -83 79t-32 116h49q3 -49 24 -89.5t65 -61.5l73 151h56z" />
    <glyph glyph-name="afii10086" unicode="&#x444;" horiz-adv-x="478" 
d="M272 100q54 5 85.5 31t38.5 85h-123zM223 -162v213q-87 7 -130.5 55t-43.5 134v25h175v384h48v-384h175v-25q0 -86 -43.5 -134t-130.5 -55v-213h-49h-1zM223 216h-123q7 -59 38.5 -85t85.5 -31z" />
    <glyph glyph-name="afii10087" unicode="&#x445;" horiz-adv-x="359" 
d="M187 153l-87 -102h-64l120 138l-66 76h64l33 -39l35 39h64l-66 -76l120 -137h-64z" />
    <glyph glyph-name="afii10088" unicode="&#x446;" horiz-adv-x="371" 
d="M354 51h-1v-28l-41 -2l-1 30l-259 1v213h50v-169h164v168h48v-168h40v-45z" />
    <glyph glyph-name="afii10089" unicode="&#x447;" horiz-adv-x="310" 
d="M241 266h48v-214h-48v63l-91 -1q-32 4 -58 30q-32 32 -32 75v47h48v-47q0 -22 16.5 -40t40.5 -18l76 1v104zM166 113q-11 0 -16 1z" />
    <glyph glyph-name="afii10090" unicode="&#x448;" horiz-adv-x="441" 
d="M426 54h-119v-3l-244 1v214h50v-169h106v171h50v-169h109v168h48v-213z" />
    <glyph glyph-name="afii10091" unicode="&#x449;" horiz-adv-x="488" 
d="M468 25l-44 -1l-1 30h-116v-3l-244 1v214h50v-169h106v171h50v-169h109v168h48v-168h42v-74z" />
    <glyph glyph-name="afii10092" unicode="&#x44a;" horiz-adv-x="444" 
d="M224 155v-54h110q16 0 29.5 5.5t13.5 23.5q0 16 -13.5 20.5t-31.5 4.5h-108zM131 222v-30h-43v75h136v-65h110q37 0 64.5 -17.5t27.5 -54.5q0 -39 -27.5 -58t-66.5 -19h-161l1 169h-41z" />
    <glyph glyph-name="afii10093" unicode="&#x44b;" horiz-adv-x="415" 
d="M62 51h161q39 0 66.5 19t27.5 58q0 37 -27.5 54.5t-64.5 17.5h-110v65h-53v-214zM223 153q18 0 31.5 -4.5t13.5 -20.5q0 -18 -13.5 -23.5t-29.5 -5.5h-110v54h108zM345 268h48v-214h-48v214z" />
    <glyph glyph-name="afii10094" unicode="&#x44c;" horiz-adv-x="334" 
d="M62 265h53v-65h110q37 0 64.5 -17.5t27.5 -54.5q0 -39 -27.5 -58t-66.5 -19h-161v214zM115 153v-54h110q16 0 29.5 5.5t13.5 23.5q0 16 -13.5 20.5t-31.5 4.5h-108z" />
    <glyph glyph-name="afii10095" unicode="&#x44d;" horiz-adv-x="273" 
d="M144 52h-91v48h93q24 0 41 16q8 8 12 19h-96v44h96q-4 11 -12 20q-17 18 -43 18h-91v48h93q43 0 74.5 -31.5t31.5 -76.5q0 -43 -31.5 -74.5t-76.5 -31.5v1z" />
    <glyph glyph-name="afii10096" unicode="&#x44e;" horiz-adv-x="436" 
d="M267 53q-45 0 -77 31q-24 24 -30 55h-58v-88h-50v213l50 1v-80h60q6 28 28 50q32 32 75 32h47q43 0 74.5 -31.5t31.5 -76.5q0 -43 -30.5 -74t-74.5 -31zM267 219q-26 0 -42.5 -18t-16.5 -42q0 -22 16.5 -40t40.5 -18h47q25 0 41.5 18t16.5 40q0 24 -17 42t-40 18h-46z
" />
    <glyph glyph-name="afii10097" unicode="&#x44f;" horiz-adv-x="349" 
d="M329 53h-53v75h-85h-6q-24 -3 -46 -20.5t-22 -49.5v-5h-48v5q0 34 15 56t41 30q-26 16 -26 51q0 39 27.5 54.5t66.5 15.5h136v-212zM276 175v42h-85q-16 0 -29.5 -2t-13.5 -20q0 -16 13.5 -18t31.5 -2h83z" />
    <glyph glyph-name="afii10023" unicode="&#x401;" horiz-adv-x="469" 
d="M469 190q-20 -24 -49.5 -38t-64.5 -12l-157 8v-299h41q33 0 56.5 1t43 3t38 5.5t41.5 9.5v-49h-296v335h-10q-27 2 -49.5 -10t-38.5 -31l-24 19q20 24 49.5 38.5t63.5 11.5h9v563h296v-48q-23 5 -41.5 8.5t-38 6t-43 3t-56.5 0.5h-41v-539l160 -7q27 -1 49.5 10t37.5 30z
M168 715h-16v-866h16v866zM279 840q0 18 11.5 30t29.5 13q18 0 30.5 -12t12.5 -29q0 -18 -11.5 -30t-29.5 -12q-18 -1 -29.5 11t-11.5 29h-2zM153 838q0 18 11.5 30t29.5 12q18 1 30.5 -11t12.5 -28q0 -18 -11.5 -30t-29.5 -13q-18 0 -30.5 12t-12.5 30v-2z" />
    <glyph glyph-name="afii10053" unicode="&#x404;" horiz-adv-x="961" 
d="M579 745q104 -6 193.5 -57t161.5 -157l-24 -16q-35 49 -76 87.5t-84.5 64t-87 38t-83.5 10.5q-82 0 -149.5 -35t-116 -95t-75.5 -139.5t-29 -168.5q0 -26 2 -51.5t6 -49.5l167 -7q27 -1 49.5 10t37.5 30l24 -19q-20 -24 -49.5 -38t-64.5 -12l-158 7q15 -67 46 -123.5
t74.5 -98t99 -65t119.5 -23.5q106 0 197.5 50.5t160.5 150.5l24 -16q-72 -106 -168.5 -159.5t-208.5 -55.5h-11q-80 0 -148.5 26t-122 72.5t-90.5 110t-53 138.5h-12q-27 2 -49.5 -10t-38.5 -31l-24 19q20 24 50 38q28 14 69 12q-4 23 -5.5 46.5t-1.5 48.5q3 97 36 182.5
t91.5 149t140 100t181.5 36.5zM285 592q-58 -63 -91 -142t-35 -173q-2 -97 29 -180t91 -144q-49 64 -75 146t-23 178q2 91 29 171t75 144z" />
    <glyph glyph-name="afii10056" unicode="&#x407;" horiz-adv-x="169" 
d="M161 833h-29l-24 216h77zM49 -181v930h77v-930h-77zM141 1019l6 -54l6 54h-12zM96 719h-17v-870h17v870zM43 833h-29l-24 216h77zM23 1019l6 -54l6 54h-12z" />
    <glyph glyph-name="uni0406" unicode="&#x406;" horiz-adv-x="169" 
d="M96 833h-29l-24 216h77zM49 -181v930h77v-930h-77zM76 1019l6 -54l6 54h-12zM96 719h-17v-870h17v870z" />
    <glyph glyph-name="afii10103" unicode="&#x456;" horiz-adv-x="139" 
d="M75 388h48v-49h-48v49zM75 265h48v-214h-48v214z" />
    <glyph glyph-name="afii10104" unicode="&#x457;" horiz-adv-x="139" 
d="M110 388h48v-49h-48v49zM75 265h48v-214h-48v214zM33 388h48v-49h-48v49z" />
    <glyph glyph-name="afii10110" unicode="&#x45e;" horiz-adv-x="341" 
d="M241 105q9 -5 12 -5v-48q-7 0 -16 1t-20 2l-105 -213l-43 21l100 207q-54 27 -83 79t-32 116h49q3 -49 24 -89.5t65 -61.5l73 151h56zM193 345q-42 0 -71.5 26.5t-36.5 78.5l46 2q-2 -34 18 -51t43.5 -17t42.5 17t17 51l46 -1q-6 -52 -34.5 -79t-70.5 -27z" />
    <glyph glyph-name="afii10062" unicode="&#x40e;" horiz-adv-x="617" 
d="M352 108l-332 638h80l284 -529l90 250q25 67 42 135t39 143h53l-106 -289q-59 -163 -115.5 -319.5t-118.5 -322.5h-32zM82 716h-17l296 -560l5 25zM335 801q-24 0 -45 7.5t-38.5 21.5t-29 32.5t-15.5 41.5l29 3q7 -35 35 -56t63 -21q36 0 64 21t35 56l28 -3
q-8 -45 -43.5 -74t-82.5 -29z" />
    <glyph glyph-name="afii10101" unicode="&#x454;" horiz-adv-x="273" 
d="M160 51q-45 0 -76.5 31.5t-31.5 74.5q0 45 31.5 76.5t74.5 31.5h93v-48h-91q-26 0 -43 -18q-8 -9 -12 -20h96v-44h-96q4 -11 12 -19q17 -16 41 -16h93v-48h-91v-1z" />
    <glyph glyph-name="afii61352" unicode="&#x2116;" horiz-adv-x="678" 
d="M397 359v-537h-30v376q0 42 -15 78t-40 66.5t-58 56t-70 45.5q-34 19 -63 40.5t-53 49.5v-712h-30v863v58h30v-55q14 -56 55 -96t93 -70q43 -25 81.5 -55t69.5 -65v341h30v-381l1 -2zM367 350q-30 46 -72.5 81t-92.5 65q-40 24 -75 53t-59 67v-35q24 -34 58 -61.5
t72 -49.5q54 -30 98 -67.5t71 -88.5v36zM502 470h117v-48h-116zM561 555q-39 0 -67 27.5t-28 66.5t28 67t67 28t66.5 -28t27.5 -67t-27.5 -66.5t-66.5 -27.5zM561 694q-18 0 -32.5 -12.5t-14.5 -32.5q0 -18 14.5 -32t32.5 -14q19 0 32 14t13 32t-13.5 31t-31.5 13v1z" />
    <glyph glyph-name="afii10098" unicode="&#x490;" horiz-adv-x="429" 
d="M80 715h-15v-866h16zM359 743v67h43v-104l-287 1l-4 -888h-76v926z" />
    <glyph glyph-name="afii10098" unicode="&#x491;" horiz-adv-x="283" 
d="M218 264v47h43l1 -97l-160 1v-164h-48v214z" />
    </font>
</defs>
</svg>
